<svg width="298" height="173" viewBox="0 0 298 173" fill="none" xmlns="http://www.w3.org/2000/svg">
<path d="M272.391 155.212C272.391 155.212 254.186 168.208 225.177 163.802C225.177 163.802 205.849 159.166 165.746 167.16L165.074 167.296C165.074 167.296 127.269 174.454 90.9526 172.733C85.703 172.769 80.4568 172.456 75.2486 171.795C50.4506 168.83 4.64019 156.754 1.23737 108.027C1.23737 108.027 -11.7018 36.1792 46.1035 3.61732C46.1035 3.61732 65.457 -6.54068 95.1891 7.18797C95.1891 7.18797 121.995 17.1926 176.006 5.24499C176.006 5.24499 247.839 -18.011 278.363 45.8174C278.32 45.8174 326.317 118.176 272.391 155.212Z" fill="#F4F4F9"/>
<path opacity="0.25" d="M165.746 167.142L165.074 167.279C165.074 167.279 127.269 174.437 90.9526 172.716C85.703 172.752 80.4568 172.439 75.2486 171.778L89.4809 157.087L162.488 157.709L165.746 167.142Z" fill="#C9D3F9"/>
<path opacity="0.7" d="M26.716 150.695C38.7718 150.695 48.545 148.952 48.545 146.801C48.545 144.65 38.7718 142.906 26.716 142.906C14.6601 142.906 4.8869 144.65 4.8869 146.801C4.8869 148.952 14.6601 150.695 26.716 150.695Z" fill="#C9D3F9"/>
<path opacity="0.7" d="M281.372 156.718C290.483 156.214 297.782 154.252 297.677 152.334C297.571 150.417 290.1 149.271 280.99 149.775C271.88 150.279 264.58 152.241 264.686 154.159C264.791 156.076 272.262 157.222 281.372 156.718Z" fill="#C9D3F9"/>
<path opacity="0.7" d="M233.063 148.863C242.187 148.863 249.583 147.306 249.583 145.386C249.583 143.466 242.187 141.909 233.063 141.909C223.939 141.909 216.542 143.466 216.542 145.386C216.542 147.306 223.939 148.863 233.063 148.863Z" fill="#C9D3F9"/>
<path opacity="0.7" d="M70.1359 144.142C84.3624 144.142 95.8952 141.963 95.8952 139.276C95.8952 136.589 84.3624 134.41 70.1359 134.41C55.9094 134.41 44.3766 136.589 44.3766 139.276C44.3766 141.963 55.9094 144.142 70.1359 144.142Z" fill="#C9D3F9"/>
<path d="M31.3268 44.9396C31.3268 44.9396 27.0052 45.5361 27.8219 46.84C28.515 47.1822 29.2348 47.4672 29.9742 47.6921C29.9742 47.6921 38.7109 51.152 45.2868 56.5889C45.2868 56.5889 44.0278 49.4136 42.2073 48.7403C38.6523 47.2758 35.02 46.007 31.3268 44.9396Z" fill="white"/>
<path d="M43.8151 35.9065C44.1121 39.1235 43.9459 42.3665 43.3217 45.5361C43.0825 46.7903 42.6461 47.9984 42.0286 49.1153L42.9984 51.8423L40.9057 50.0357L39.0256 49.8311C39.0256 49.8311 34.4148 49.192 31.2927 46.6099V43.4824L31.9903 37.7216C31.9903 37.7216 34.1086 33.1028 37.6049 32.8557C37.639 32.8557 42.2753 31.7138 43.8151 35.9065Z" fill="#DAE0FA"/>
<path d="M37.5029 39.9543H38.4812C38.5024 39.9555 38.5237 39.9524 38.5438 39.9453C38.5638 39.9383 38.5823 39.9273 38.5981 39.913C38.6139 39.8988 38.6267 39.8815 38.6359 39.8623C38.645 39.8431 38.6503 39.8222 38.6514 39.801C38.6939 39.3834 38.9746 38.1903 40.7951 37.3041C40.8777 37.2655 40.9488 37.2058 41.001 37.131C41.0533 37.0562 41.085 36.9689 41.0929 36.878L41.246 34.8157C41.2471 34.7752 41.2586 34.7357 41.2792 34.7008C41.2998 34.666 41.3289 34.637 41.3638 34.6165C41.3987 34.5961 41.4382 34.5848 41.4786 34.5839C41.519 34.583 41.559 34.5923 41.5948 34.6112C42.3743 35.0015 43.1274 35.4427 43.8492 35.932C44.1189 36.0303 44.4148 36.0285 44.6833 35.9269C44.9518 35.8252 45.175 35.6305 45.3124 35.3781C45.4735 35.1286 45.5823 34.8488 45.632 34.5557C45.6817 34.2627 45.6714 33.9627 45.6016 33.6738C45.3209 32.4552 44.283 30.265 40.4208 29.5236C40.4208 29.5236 34.7722 28.8845 33.1728 29.5236C33.1728 29.5236 27.4476 32.3785 30.0507 39.9458C30.0507 39.9458 31.0376 43.7039 31.3608 43.7806C31.3608 43.7806 32.5008 43.7806 32.722 42.2808C32.722 42.2808 32.5773 38.1222 35.2741 37.9006C35.5221 37.8806 35.7715 37.9122 36.0067 37.9935C36.2419 38.0748 36.4578 38.2039 36.6408 38.3728C36.8237 38.5417 36.9698 38.7466 37.0699 38.9748C37.17 39.203 37.2218 39.4495 37.2222 39.6987C37.2266 39.7695 37.2583 39.8358 37.3108 39.8836C37.3632 39.9313 37.4321 39.9567 37.5029 39.9543Z" fill="#041C39"/>
<path d="M27.1073 139.131C27.0921 139.121 27.0744 139.116 27.0563 139.116C27.0381 139.116 27.0204 139.121 27.0052 139.131C26.5608 139.603 26.265 140.196 26.1545 140.836C26.1545 140.836 25.9674 143.435 26.0014 144.807C26.0036 144.84 26.0131 144.873 26.0293 144.902C26.0455 144.932 26.0679 144.957 26.095 144.977C26.7564 145.49 27.519 145.856 28.3323 146.051C28.3988 146.072 28.47 146.072 28.5365 146.051L29.2766 145.795C31.3248 147.754 33.9895 148.938 36.8138 149.144C36.8138 149.144 41.0673 149.494 41.6884 147.653V146.639C41.6884 146.639 41.6203 146.136 40.7526 145.838C40.7526 145.838 35.3251 142.983 34.4319 139.873C34.4489 139.873 30.0933 140.145 27.1073 139.131Z" fill="#5165F3"/>
<path d="M26.716 141.577C29.5161 142.398 32.4978 142.356 35.274 141.458C34.8822 140.992 34.5923 140.449 34.4233 139.864L27.1583 139.157C27.1154 139.153 27.0721 139.16 27.0322 139.176C26.9923 139.192 26.9568 139.218 26.9286 139.251C26.5132 139.697 26.2406 140.258 26.146 140.861V141.381L26.716 141.577Z" fill="#4D5DEF"/>
<path d="M40.055 96.1472C40.055 96.1472 42.4455 103.698 42.8198 115.909V116.344C42.8198 116.344 34.8657 121.866 32.7815 128.615L26.733 137.947V138.842C26.733 138.842 29.1149 141.475 34.4659 139.83C37.1387 135.007 40.6406 130.694 44.8104 127.09L49.8636 122.326C51.7972 120.504 52.9806 118.024 53.1814 115.372L54.517 102.377L62.1733 110.174C62.1733 110.174 63.4153 121.687 69.4128 130.328L72.4328 134.896C72.4328 134.896 76.8905 135.441 79.1193 133.95C79.1193 133.95 71.2418 120.647 72.135 111.018C71.9997 108.625 71.2686 106.305 70.0083 104.269C65.9237 95.2606 60.8262 86.749 54.8147 78.8991L40.055 96.1472Z" fill="#EBEEFB"/>
<path d="M28.6556 138.492L37.0265 127.942L43.4663 120C44.4168 119.099 45.1614 118.002 45.6489 116.786C46.1365 115.569 46.3554 114.262 46.2907 112.952V99.2236C47.9329 98.9038 49.467 98.1706 50.7484 97.0931L55.4017 92.0312L54.517 102.377L62.1733 110.174C62.1733 110.174 63.3558 122.062 70.1274 131.411L72.4328 134.896L74.7637 134.99C71.5556 128.084 68.8241 120.966 66.5885 113.685L65.3464 109.629C65.3464 109.629 64.5553 106.782 60.7356 102.462C60.7356 102.462 60.2677 88.043 59.0342 84.6513L54.8317 78.882L40.055 96.1472C40.055 96.1472 42.9389 107.226 42.8198 116.344C42.8198 116.344 35.0103 121.764 32.7815 128.615L26.733 137.947V138.842C27.0797 139.186 27.4788 139.474 27.9155 139.694L28.6556 138.492Z" fill="#DAE0FA"/>
<path d="M27.8219 46.84L27.7198 49.78C27.7198 49.78 23.9937 54.5522 25.6781 62.5627C25.6781 62.5627 27.0647 67.0793 31.4288 73.6837C33.3578 77.1215 34.5405 80.9286 34.8997 84.8558L35.861 95.7978C35.8675 95.886 35.907 95.9684 35.9718 96.0285C36.0365 96.0886 36.1215 96.1219 36.2098 96.1216H46.6735C47.021 96.1248 47.3605 96.0173 47.6433 95.8148C49.4619 94.4452 50.9829 92.7187 52.1135 90.7408C53.2441 88.7628 53.9606 86.5749 54.2192 84.3104C54.2192 84.3104 56.3034 74.3825 52.7815 64.7954L49.6509 58.7449C48.0219 55.5906 45.9348 52.6958 43.4578 50.155C44.3527 52.2278 44.9899 54.4029 45.3549 56.6315C45.3549 56.6315 40.3527 52.0979 29.8465 47.6921C29.1566 47.4452 28.4807 47.1608 27.8219 46.84Z" fill="#5165F3"/>
<path d="M27.4646 50.7856C33.2302 51.6018 38.8112 53.4125 43.9597 56.1373C43.9597 56.1373 38.9746 52.5155 27.7198 49.78C27.7198 49.78 27.2944 50.4191 27.1498 50.6748L27.0648 50.8282L27.4646 50.7856Z" fill="#5660F3"/>
<path d="M28.7491 65.2215C28.7491 65.2215 39.7487 74.8512 46.3417 76.1465C49.1741 76.3413 52.0164 76.3413 54.8487 76.1465C54.9111 78.1102 54.8258 80.0757 54.5935 82.0266C54.5935 82.0266 38.6343 82.4441 28.7491 65.2215Z" fill="#5660F3"/>
<path d="M40.055 59.6397C41.5761 61.7228 43.2179 63.7147 44.9721 65.605C44.9721 65.605 47.2604 68.4428 53.7939 68.1616L53.309 66.3975C48.4445 65.1597 43.9167 62.8511 40.055 59.6397Z" fill="#5660F3"/>
<path d="M54.8232 76.1465L63.2877 75.6949C63.2877 75.6949 64.9296 74.3569 64.0363 68.4002L53.7769 68.0934L54.8232 76.1465Z" fill="#5165F3"/>
<path d="M70.6293 63.5342L71.5651 63.9348L71.2929 68.7496L69.6595 68.5706C69.6595 68.5706 69.3362 65.2471 70.6293 63.5342Z" fill="#EBF8FC"/>
<path d="M47.3965 55.0039C47.3965 55.0039 55.3591 59.6142 60.5144 60.8072C60.5144 60.8072 68.0516 62.4434 70.6293 63.5342C69.8287 64.9109 69.4973 66.5113 69.685 68.0934L69.634 68.9967L63.7386 67.8548C63.7386 67.8548 56.0057 66.7129 52.7815 64.821C52.8155 64.821 48.8257 56.9639 47.3965 55.0039Z" fill="#5165F3"/>
<path d="M132.313 50.9395L75.0594 48.004L72.3317 101.391L129.586 104.327L132.313 50.9395Z" fill="#E6E7E8"/>
<path d="M99.6556 49.2585L75.0599 47.9974L72.3322 101.385L96.9278 102.646L99.6556 49.2585Z" fill="#849BF6"/>
<path d="M132.258 51.8914L99.5998 50.217L96.9933 101.23L129.652 102.904L132.258 51.8914Z" fill="#6380F5"/>
<path d="M101.289 50.3046L77.5342 49.0866L77.162 56.3718L100.917 57.5897L101.289 50.3046Z" fill="white"/>
<path d="M101.402 94.1489L75.3029 92.8107L74.9306 100.096L101.03 101.434L101.402 94.1489Z" fill="white"/>
<path d="M130.038 95.6132L102.188 94.1853L101.816 101.47L129.665 102.898L130.038 95.6132Z" fill="white"/>
<path d="M132.269 51.8892L101.828 50.3284L101.456 57.6135L131.897 59.1743L132.269 51.8892Z" fill="white"/>
<path d="M96.9008 91.6587L95.55 91.5894C93.293 91.4737 91.3698 93.2127 91.2543 95.4735L91.1851 96.8267C91.0696 99.0876 92.8056 101.014 95.0625 101.13L96.4134 101.199C98.6703 101.315 100.594 99.5759 100.709 97.315L100.778 95.9618C100.894 93.701 99.1578 91.7744 96.9008 91.6587Z" fill="#E6E7E8"/>
<path d="M77.2733 97.8004C77.9499 97.8004 78.4983 97.251 78.4983 96.5733C78.4983 95.8956 77.9499 95.3462 77.2733 95.3462C76.5967 95.3462 76.0483 95.8956 76.0483 96.5733C76.0483 97.251 76.5967 97.8004 77.2733 97.8004Z" fill="#6380F5"/>
<path d="M79.7211 55.3823L80.5608 55.4253L80.8059 50.6281L79.9596 50.5847L78.6634 51.4016L78.6222 52.2094L79.9045 51.4019L79.9245 51.4029L79.7211 55.3823Z" fill="#6380F5"/>
<path d="M83.4863 55.672C84.6578 55.7321 85.4041 54.8004 85.4826 53.2645C85.5611 51.7285 84.9061 50.7417 83.7412 50.682C82.573 50.6221 81.8172 51.5433 81.7389 53.0758C81.6603 54.6151 82.3114 55.6118 83.4863 55.672ZM83.5221 54.9705C82.8849 54.9379 82.5442 54.2471 82.602 53.1168C82.6587 52.0064 83.0748 51.3511 83.7054 51.3834C84.3326 51.4156 84.6735 52.103 84.6163 53.2234C84.5585 54.3537 84.156 55.003 83.5221 54.9705Z" fill="#6380F5"/>
<path d="M87.8006 55.8932C88.9721 55.9533 89.7185 55.0216 89.797 53.4857C89.8754 51.9498 89.2204 50.9629 88.0556 50.9032C86.8874 50.8433 86.1316 51.7645 86.0533 53.2971C85.9746 54.8363 86.6258 55.833 87.8006 55.8932ZM87.8365 55.1917C87.1993 55.1591 86.8586 54.4683 86.9163 53.338C86.973 52.2276 87.3892 51.5723 88.0197 51.6046C88.647 51.6368 88.9878 52.3242 88.9306 53.4446C88.8728 54.5749 88.4703 55.2242 87.8365 55.1917Z" fill="#6380F5"/>
<path d="M92.1149 56.1144C93.2865 56.1745 94.0328 55.2428 94.1113 53.7069C94.1898 52.171 93.5348 51.1841 92.3699 51.1244C91.2017 51.0645 90.4459 51.9857 90.3676 53.5183C90.289 55.0575 90.9401 56.0542 92.1149 56.1144ZM92.1508 55.4129C91.5136 55.3803 91.1729 54.6895 91.2306 53.5592C91.2874 52.4488 91.7035 51.7935 92.3341 51.8258C92.9613 51.858 93.3022 52.5454 93.2449 53.6658C93.1872 54.7961 92.7847 55.4454 92.1508 55.4129Z" fill="#6380F5"/>
<path d="M96.4293 56.3356C97.6008 56.3957 98.3471 55.464 98.4256 53.9281C98.5041 52.3922 97.8491 51.4053 96.6842 51.3456C95.5161 51.2857 94.7602 52.2069 94.6819 53.7395C94.6033 55.2787 95.2545 56.2754 96.4293 56.3356ZM96.4651 55.6341C95.8279 55.6015 95.4872 54.9107 95.545 53.7804C95.6017 52.67 96.0178 52.0147 96.6484 52.047C97.2756 52.0792 97.6165 52.7666 97.5593 53.887C97.5015 55.0173 97.099 55.6666 96.4651 55.6341Z" fill="#6380F5"/>
<path d="M126.104 63.1252H68.7748V116.583H126.104V63.1252Z" fill="#E6E7E8"/>
<path d="M93.4027 63.1252H68.7748V116.583H93.4027V63.1252Z" fill="#849BF6"/>
<path d="M126.104 64.0796H93.4026V115.159H126.104V64.0796Z" fill="#6380F5"/>
<path d="M95.087 64.0796H71.3013V71.3743H95.087V64.0796Z" fill="white"/>
<path d="M97.435 107.865H71.3013V115.159H97.435V107.865Z" fill="white"/>
<path d="M126.104 107.865H98.2176V115.159H126.104V107.865Z" fill="white"/>
<path d="M126.104 64.0796H95.623V71.3743H126.104V64.0796Z" fill="white"/>
<path d="M92.8072 105.606H91.4546C89.1947 105.606 87.3627 107.442 87.3627 109.705V111.06C87.3627 113.324 89.1947 115.159 91.4546 115.159H92.8072C95.0671 115.159 96.8991 113.324 96.8991 111.06V109.705C96.8991 107.442 95.0671 105.606 92.8072 105.606Z" fill="#6380F5"/>
<path d="M73.4792 112.739C74.1557 112.739 74.7042 112.19 74.7042 111.512C74.7042 110.834 74.1557 110.285 73.4792 110.285C72.8026 110.285 72.2542 110.834 72.2542 111.512C72.2542 112.19 72.8026 112.739 73.4792 112.739Z" fill="#6380F5"/>
<path d="M73.8193 70.2409H74.6601V65.4374H73.8127L72.5599 66.3195V67.1284L73.7994 66.2563H73.8193V70.2409Z" fill="#6380F5"/>
<path d="M77.5943 70.3374C78.7674 70.3374 79.4652 69.3687 79.4652 67.8308C79.4652 66.2929 78.7607 65.3408 77.5943 65.3408C76.4246 65.3408 75.7168 66.2995 75.7168 67.8341C75.7168 69.3754 76.418 70.3374 77.5943 70.3374ZM77.5943 69.635C76.9563 69.635 76.5808 68.9626 76.5808 67.8308C76.5808 66.719 76.9629 66.0432 77.5943 66.0432C78.2224 66.0432 78.5979 66.7123 78.5979 67.8341C78.5979 68.9659 78.229 69.635 77.5943 69.635Z" fill="#6380F5"/>
<path d="M81.9143 70.3374C83.0873 70.3374 83.7852 69.3687 83.7852 67.8308C83.7852 66.2929 83.0807 65.3408 81.9143 65.3408C80.7446 65.3408 80.0368 66.2995 80.0368 67.8341C80.0368 69.3754 80.7379 70.3374 81.9143 70.3374ZM81.9143 69.635C81.2763 69.635 80.9008 68.9626 80.9008 67.8308C80.9008 66.719 81.2829 66.0432 81.9143 66.0432C82.5424 66.0432 82.9179 66.7123 82.9179 67.8341C82.9179 68.9659 82.549 69.635 81.9143 69.635Z" fill="#6380F5"/>
<path d="M86.2343 70.3374C87.4073 70.3374 88.1052 69.3687 88.1052 67.8308C88.1052 66.2929 87.4007 65.3408 86.2343 65.3408C85.0646 65.3408 84.3567 66.2995 84.3567 67.8341C84.3567 69.3754 85.0579 70.3374 86.2343 70.3374ZM86.2343 69.635C85.5962 69.635 85.2207 68.9626 85.2207 67.8308C85.2207 66.719 85.6029 66.0432 86.2343 66.0432C86.8623 66.0432 87.2378 66.7123 87.2378 67.8341C87.2378 68.9659 86.869 69.635 86.2343 69.635Z" fill="#6380F5"/>
<path d="M90.5543 70.3374C91.7273 70.3374 92.4251 69.3687 92.4251 67.8308C92.4251 66.2929 91.7207 65.3408 90.5543 65.3408C89.3845 65.3408 88.6767 66.2995 88.6767 67.8341C88.6767 69.3754 89.3779 70.3374 90.5543 70.3374ZM90.5543 69.635C89.9162 69.635 89.5407 68.9626 89.5407 67.8308C89.5407 66.719 89.9229 66.0432 90.5543 66.0432C91.1823 66.0432 91.5578 66.7123 91.5578 67.8341C91.5578 68.9659 91.189 69.635 90.5543 69.635Z" fill="#6380F5"/>
<path d="M71.4715 72.6014L70.1784 73.5303C69.8759 73.7511 69.5274 73.9004 69.159 73.9668C68.7906 74.0332 68.412 74.0151 68.0517 73.9138C68.0517 73.9138 66.095 73.215 65.2358 73.6241L64.9041 68.4002C66.1125 68.2412 67.3366 68.2412 68.5451 68.4002C69.5205 68.6063 70.5214 68.6637 71.514 68.5706C71.514 68.5706 72.5434 68.4854 72.2967 71.2379C72.2665 71.5117 72.177 71.7755 72.0345 72.011C71.8919 72.2465 71.6998 72.448 71.4715 72.6014Z" fill="#DAE0FA"/>
<path d="M64.0363 68.4002H64.887C65.3823 70.0954 65.4956 71.8796 65.2188 73.624H64.1469C64.4051 71.889 64.3677 70.1227 64.0363 68.4002Z" fill="#EBF8FC"/>
<path d="M72.0499 137.802C72.0025 138.646 72.0915 139.492 72.3137 140.307C72.3386 140.38 72.3857 140.443 72.4483 140.487C72.5109 140.531 72.5858 140.555 72.6625 140.554L86.4183 140.682C86.4183 140.682 90.3316 140.742 90.7994 139.14C90.8428 138.991 90.8527 138.835 90.8286 138.682C90.8044 138.529 90.7468 138.383 90.6597 138.255C90.5727 138.128 90.4585 138.021 90.3253 137.942C90.192 137.864 90.0431 137.816 89.8892 137.802C89.8892 137.802 83.0325 137.239 79.7403 134.393L72.0499 137.802Z" fill="#5165F3"/>
<path d="M234.5 139.873H235.419C236.405 141.729 236.706 143.875 236.27 145.932L236.193 146.255C234.692 146.468 233.175 146.551 231.659 146.503V145.48L229.898 145.608C228.602 145.961 227.354 146.471 226.181 147.125C226.181 147.125 221.255 147.815 218.031 146.153C218.031 146.153 217.265 144.764 218.201 144.091C219.915 144.084 221.625 143.909 223.305 143.571C224.957 142.552 226.548 141.436 228.069 140.231L234.5 139.873Z" fill="#5165F3"/>
<path d="M226.921 142.012C226.921 142.012 229.856 143.264 236.355 142.821C236.247 141.793 235.928 140.798 235.419 139.898L228.086 140.256L226.359 141.577L226.921 142.012Z" fill="#5660F3"/>
<path d="M235.198 94.9201C235.198 94.9201 222.905 107.43 221.816 109.322C221.816 109.322 219.264 112.1 219.928 118.253C219.928 118.253 224.692 131.658 226.972 139.898C229.395 140.829 232.077 140.829 234.5 139.898L232.62 132.058C232.166 126.54 231.022 121.1 229.218 115.867C229.218 115.867 229.022 114.427 231.404 113.83C231.404 113.83 240.175 110.183 244.113 106.007L238.312 96.3262L237.461 94.9115L235.198 94.9201Z" fill="#EBEEFB"/>
<path d="M233.582 99.8201C234.062 101.891 234.708 103.92 235.513 105.888C235.559 105.986 235.573 106.097 235.553 106.204C235.533 106.311 235.481 106.409 235.402 106.484C232.781 109.109 229.806 111.352 226.563 113.148C226.391 113.23 226.255 113.373 226.181 113.549C226.107 113.725 226.101 113.922 226.163 114.103C227.167 116.923 231.115 128.155 232.467 134.376L234.5 139.881L232.62 132.041C232.106 126.532 230.965 121.099 229.217 115.85C229.217 115.85 228.673 114.759 231.404 113.813C231.404 113.813 239.137 110.933 244.113 105.99L239.281 97.9283L237.418 94.9201H235.164L233.343 96.7778C233.164 97.7957 233.246 98.8427 233.582 99.8201Z" fill="#DAE0FA"/>
<path d="M286.478 142.037C287.1 142.368 287.631 142.846 288.025 143.43C288.42 144.014 288.665 144.685 288.741 145.386C285.561 146.419 282.241 146.954 278.899 146.971H278.21L279.596 145.489L286.478 142.037Z" fill="#5660F3"/>
<path d="M288.86 148.463L285.534 150.772L285.381 149.749L284.751 150.099C283.928 150.622 283.221 151.309 282.676 152.119C282.388 152.569 281.969 152.92 281.476 153.124C278.382 154.296 275.013 154.53 271.787 153.797C271.787 153.797 270.009 153.252 270.153 151.667C270.153 151.667 270.4 150.815 272.382 150.593C272.382 150.593 276.176 149.741 278.21 146.988C281.782 147.008 285.336 146.468 288.741 145.386L288.86 148.463Z" fill="#5165F3"/>
<path d="M279.596 145.506C279.596 145.506 272.68 134.683 265.398 127.243C265.398 127.243 259.23 122.25 257.742 120.988C257.742 120.988 248.75 112.799 244.13 106.015L237.444 94.9371L250.298 88.1623C253.687 91.2638 255.74 95.5631 256.023 100.152C256.023 100.152 259.145 110.455 266.58 116.847C266.58 116.847 278.099 122.147 286.453 141.56C286.461 141.509 287.397 144.491 279.596 145.506Z" fill="#EBEEFB"/>
<path d="M72.4583 134.87C72.1335 135.812 71.9948 136.807 72.05 137.802C72.05 137.802 76.9925 136.532 79.5617 134.555L79.7403 134.41L79.1874 133.907C79.1874 133.907 77.0096 135.365 72.4583 134.87Z" fill="#5660F3"/>
<path d="M222.956 64.412L217.725 67.369C217.725 67.369 211.361 66.1078 206.504 64.5654L206.716 67.6843C210.198 68.2764 213.726 68.5474 217.257 68.4939L222.956 64.412Z" fill="#5660F3"/>
<path d="M169.328 127.678C192.749 127.678 211.736 108.658 211.736 85.1967C211.736 61.7349 192.749 42.7154 169.328 42.7154C145.907 42.7154 126.92 61.7349 126.92 85.1967C126.92 108.658 145.907 127.678 169.328 127.678Z" fill="#B8C4F8"/>
<path d="M168.698 120.775C188.314 120.775 204.215 104.846 204.215 85.1967C204.215 65.5471 188.314 49.6181 168.698 49.6181C149.083 49.6181 133.182 65.5471 133.182 85.1967C133.182 104.846 149.083 120.775 168.698 120.775Z" fill="#849BF6"/>
<path d="M168.077 114.963C184.489 114.963 197.793 101.636 197.793 85.1967C197.793 68.757 184.489 55.43 168.077 55.43C151.666 55.43 138.362 68.757 138.362 85.1967C138.362 101.636 151.666 114.963 168.077 114.963Z" fill="#B8C4F8"/>
<path d="M176.755 83.1855C178.314 82.8311 179.706 81.9551 180.702 80.7019C181.698 79.4488 182.238 77.8931 182.233 76.2914C182.233 72.1753 179.018 69.312 173.726 68.5024V64.412H167.125V68.2894H164.258V64.4375H157.622V68.2894H155.385V100.084H156.84V104.55H163.407V100.084H167.091V104.55H173.692V99.9224C179.604 99.198 183.237 96.0023 183.237 91.2386C183.315 89.3372 182.7 87.4722 181.508 85.9908C180.315 84.5094 178.626 83.5125 176.755 83.1855ZM163.671 74.7489H170.009C172.322 74.6978 173.726 75.8397 173.726 77.7401C173.726 79.6404 172.322 80.9187 170.009 80.9187H163.671V74.7489ZM170.009 93.6162H163.671V86.9522H170.009C172.909 86.901 174.721 88.1708 174.721 90.1649C174.721 92.3465 172.909 93.6162 170.009 93.6162Z" fill="#849BF6"/>
<path d="M192.382 54.3648L192.552 57.6968C192.601 58.2679 192.47 58.8399 192.178 59.333C191.538 61.302 191.574 63.4288 192.28 65.3749C192.455 65.964 192.76 66.5059 193.173 66.96C195 68.7811 197.098 70.3075 199.392 71.4851L199.324 66.6021C199.324 66.6021 197.163 65.8351 196.84 63.8495C196.558 61.6671 196.532 59.4591 196.763 57.2707C196.763 57.2707 197.086 52.507 194.262 51.8849C194.262 51.8849 193.411 51.6889 193.496 52.9075V53.6489C193.496 53.6489 192.433 53.1973 192.382 54.3648Z" fill="#DAE0FA"/>
<path d="M197.503 65.2982L198.201 70.7948L199.392 71.4851L199.324 66.6021C198.595 66.3702 197.958 65.914 197.503 65.2982Z" fill="#C9D3F9"/>
<path d="M199.383 66.3635C198.859 68.7537 199.085 71.248 200.03 73.5047C200.12 73.7258 200.257 73.9243 200.432 74.0863C200.607 74.2483 200.815 74.3698 201.042 74.4421C203.331 75.1495 210.97 77.3737 217.452 77.5015L222.361 75.2688L225.33 73.7774C225.33 73.7774 225.747 83.2878 228.511 90.2757C229.209 92.0102 230.291 93.5634 231.676 94.8178L235.479 98.2777C235.778 98.5488 236.149 98.7282 236.547 98.7947C236.945 98.8611 237.354 98.8119 237.725 98.6526L253.726 91.6477C253.726 91.6477 247.584 80.9273 244.411 63.449C244.411 63.449 242.131 54.4159 234.5 53.0268L233.65 51.7059C233.617 51.6558 233.573 51.6136 233.522 51.5826C233.471 51.5516 233.413 51.5326 233.353 51.5268C233.294 51.5211 233.234 51.5289 233.178 51.5495C233.121 51.5702 233.07 51.6033 233.029 51.6463L227.457 57.4496C226.784 58.1417 226.321 59.0103 226.121 59.9551L225.576 62.5116L217.248 68.4769C217.248 68.4769 210.511 68.8689 199.562 66.2442C199.542 66.2376 199.521 66.2357 199.501 66.2384C199.48 66.2412 199.461 66.2486 199.444 66.2601C199.426 66.2716 199.412 66.2869 199.401 66.3048C199.391 66.3227 199.385 66.3428 199.383 66.3635Z" fill="#5165F3"/>
<path d="M237.886 58.9154C237.894 58.8971 237.907 58.8816 237.924 58.8707C237.94 58.8598 237.96 58.854 237.98 58.854C238 58.854 238.019 58.8598 238.036 58.8707C238.052 58.8816 238.065 58.8971 238.073 58.9154C238.524 59.6227 240.175 62.5968 238.49 65.4516L226.665 83.9184C226.026 80.5724 225.58 77.1921 225.33 73.7945L217.452 77.5185H216.602C216.602 77.5185 223.407 70.1983 225.917 67.8122C226.368 67.405 226.911 67.1128 227.499 66.96C229.658 66.4109 231.705 65.488 233.548 64.233C235.362 62.7974 236.843 60.9827 237.886 58.9154Z" fill="#5660F3"/>
<path d="M242.182 58.549C242.182 58.549 242.48 65.4346 241.289 69.312C240.426 72.9056 240.585 76.6697 241.748 80.1773C241.748 80.1773 243.169 85.6398 238.516 94.1275L236.882 98.201C236.849 98.2814 236.841 98.3699 236.859 98.455C236.876 98.5402 236.919 98.6181 236.981 98.6787C237.044 98.7393 237.123 98.7797 237.208 98.7948C237.294 98.8099 237.382 98.799 237.461 98.7634L253.726 91.6477C251.139 86.8083 249.074 81.7061 247.567 76.4277L246.444 72.5503C246.444 72.5503 245.151 67.548 244.411 63.4746C243.894 61.7394 243.144 60.0824 242.182 58.549Z" fill="#5660F3"/>
<path d="M217.001 42.1019C217.001 42.1019 218.303 49.9334 220.234 53.7853C220.442 54.202 220.779 54.5401 221.194 54.749C221.61 54.958 222.082 55.0264 222.539 54.9442C223.238 54.8104 223.916 54.584 224.556 54.271C225.628 55.3149 226.446 56.5921 226.946 58.0036L232.986 51.723C232.62 50.4208 232.35 49.0935 232.178 47.7518C232.178 47.7518 231.327 36.503 222.973 37.5853C221.677 37.7689 220.449 38.2797 219.404 39.0699C218.36 39.86 217.533 40.9034 217.001 42.1019Z" fill="#DAE0FA"/>
<path d="M228.222 44.5305C228.222 44.5305 231.497 49.6436 224.513 54.271C225.58 55.3193 226.397 56.5951 226.904 58.0035L232.944 51.723L232.195 48.6381C232.195 48.6381 230.587 48.9278 230.204 47.5302C230.221 46.8869 230.04 46.254 229.685 45.7174C229.331 45.1808 228.82 44.7664 228.222 44.5305Z" fill="#C9D3F9"/>
<path d="M224.556 45.9196L223.433 46.0048C223.456 45.2764 223.245 44.5598 222.832 43.9601C222.418 43.3605 221.824 42.9093 221.136 42.6728C221.042 42.6443 220.96 42.587 220.9 42.509C220.841 42.431 220.807 42.3363 220.804 42.2382V40.5338C220.807 40.4401 220.786 40.3473 220.742 40.2645C220.698 40.1817 220.633 40.1118 220.554 40.0619C220.475 40.0119 220.384 39.9835 220.291 39.9796C220.197 39.9757 220.104 39.9964 220.021 40.0396C218.844 40.6431 217.811 41.4949 216.993 42.5364C216.993 42.5364 216.653 42.7239 216.142 42.1615C215.871 41.8527 215.695 41.4716 215.637 41.0646C215.578 40.6577 215.638 40.2423 215.81 39.8691C216.289 38.8686 216.964 37.9753 217.796 37.243C218.628 36.5108 219.599 35.9547 220.651 35.6082C221.807 35.1575 223.004 34.8179 224.224 34.5941C225.194 34.4473 226.185 34.6114 227.057 35.0628C229.081 36.1025 233.08 38.8635 232.654 44.2834C232.654 44.2834 232.484 48.5443 232.161 48.6295C232.161 48.6295 229.277 49.6777 228.903 46.9252C228.903 46.9252 228.903 44.5391 226.674 44.3175C226.708 44.2919 224.317 43.7551 224.556 45.9196Z" fill="#041C39"/>
<path d="M193.539 54.0665C193.858 54.9029 194 55.7968 193.956 56.6912C194.052 55.0877 194.052 53.4799 193.956 51.8764C193.956 51.8764 193.394 51.9701 193.496 52.9075C193.496 52.9075 193.496 53.5978 193.496 53.6489L193.539 54.0665Z" fill="#C9D3F9"/>
<path d="M158.652 3.20827H92.8837C90.5768 3.20827 88.7067 5.08159 88.7067 7.39247V156.047C88.7067 158.358 90.5768 160.231 92.8837 160.231H158.652C160.958 160.231 162.829 158.358 162.829 156.047V7.39247C162.829 5.08159 160.958 3.20827 158.652 3.20827Z" fill="#B8C4F8"/>
<path d="M157.137 5.22792H94.2278C92.029 5.22792 90.2465 7.01351 90.2465 9.21614V152.689C90.2465 154.892 92.029 156.678 94.2278 156.678H157.137C159.336 156.678 161.119 154.892 161.119 152.689V9.21614C161.119 7.01351 159.336 5.22792 157.137 5.22792Z" fill="#F9FBFF"/>
<path d="M109.387 4.52065H141.799C141.799 7.68482 140.544 10.7194 138.311 12.9568C136.077 15.1942 133.048 16.4512 129.889 16.4512H121.382C118.224 16.4512 115.194 15.1942 112.961 12.9568C110.727 10.7194 109.472 7.68482 109.472 4.52065H109.387Z" fill="#B8C4F8"/>
<path d="M136.236 7.81857H115.045C114.514 7.81857 114.083 8.2478 114.083 8.77728C114.083 9.30675 114.514 9.73598 115.045 9.73598H136.236C136.766 9.73598 137.197 9.30675 137.197 8.77728C137.197 8.2478 136.766 7.81857 136.236 7.81857Z" fill="#EBEEFB"/>
<path d="M125.636 14.1077C126.43 14.1077 127.073 13.4629 127.073 12.6675C127.073 11.8721 126.43 11.2273 125.636 11.2273C124.842 11.2273 124.198 11.8721 124.198 12.6675C124.198 13.4629 124.842 14.1077 125.636 14.1077Z" fill="#EBEEFB"/>
<path d="M53.6663 58.2337L56.397 66.2527C55.1549 65.9069 53.954 65.4269 52.8156 64.821L47.4306 55.0039C47.4306 55.0039 51.9649 57.4752 53.6663 58.2337Z" fill="#5660F3"/>
<path d="M117.154 62.9232C117.027 62.8018 116.951 62.6362 116.941 62.4604C116.932 62.2845 116.99 62.1117 117.103 61.9772C119.219 59.6633 122.144 58.2561 125.27 58.0487C127.23 57.859 129.205 58.1912 130.995 59.0117C131.159 59.0941 131.283 59.2384 131.34 59.4126C131.398 59.5868 131.384 59.7767 131.301 59.9405C131.219 60.1044 131.075 60.2288 130.901 60.2863C130.727 60.3438 130.538 60.3298 130.374 60.2473C128.808 59.5475 127.09 59.2544 125.381 59.3951C122.63 59.5888 120.051 60.8044 118.15 62.8039C118.031 62.9426 117.862 63.0285 117.68 63.0429C117.499 63.0573 117.319 62.9989 117.18 62.8805L117.154 62.9232Z" fill="#849BF6"/>
<path d="M130.093 61.909C130.041 61.8592 129.992 61.805 129.949 61.7471C129.79 61.5489 129.686 61.3123 129.647 61.061C129.608 60.8097 129.636 60.5526 129.728 60.3155L130.51 58.185C130.599 57.935 130.754 57.7139 130.959 57.5452C131.163 57.3765 131.41 57.2666 131.672 57.2272C131.934 57.1879 132.201 57.2205 132.446 57.3216C132.691 57.4228 132.904 57.5886 133.062 57.8015L134.679 59.9746C134.808 60.1497 134.89 60.3558 134.915 60.5724C134.94 60.789 134.908 61.0084 134.822 61.2086C134.736 61.4089 134.599 61.5829 134.424 61.7133C134.25 61.8437 134.044 61.9259 133.828 61.9517L131.276 62.2925C131.063 62.3189 130.847 62.2982 130.642 62.232C130.438 62.1657 130.251 62.0555 130.093 61.909ZM131.956 58.6111C131.944 58.6057 131.931 58.6029 131.918 58.6029C131.905 58.6029 131.892 58.6057 131.88 58.6111C131.864 58.6136 131.849 58.6206 131.837 58.6311C131.825 58.6417 131.816 58.6554 131.812 58.6707L131.012 60.8183C131.005 60.8312 131.001 60.8459 131.001 60.8609C131.001 60.8758 131.005 60.8905 131.012 60.9035C131.024 60.9102 131.037 60.9137 131.05 60.9137C131.064 60.9137 131.077 60.9102 131.089 60.9035L133.42 60.5967L131.948 58.6622C131.948 58.6622 131.948 58.6622 131.948 58.6111H131.956Z" fill="#849BF6"/>
<path d="M134.709 99.0898C134.837 99.2112 134.913 99.3768 134.922 99.5526C134.932 99.7285 134.874 99.9013 134.76 100.036C132.645 102.35 129.719 103.757 126.594 103.964C124.634 104.154 122.659 103.822 120.868 103.001C120.705 102.919 120.581 102.775 120.523 102.6C120.466 102.426 120.48 102.236 120.562 102.072C120.645 101.909 120.788 101.784 120.962 101.727C121.136 101.669 121.326 101.683 121.489 101.766C123.056 102.466 124.774 102.759 126.483 102.618C129.233 102.424 131.812 101.209 133.714 99.2091C133.833 99.0704 134.001 98.9845 134.183 98.9701C134.365 98.9557 134.545 99.0141 134.684 99.1324L134.709 99.0898Z" fill="#849BF6"/>
<path d="M121.77 100.104C121.823 100.154 121.871 100.208 121.915 100.266C122.074 100.464 122.178 100.701 122.217 100.952C122.256 101.203 122.228 101.46 122.136 101.698L121.353 103.828C121.265 104.078 121.11 104.299 120.905 104.468C120.7 104.637 120.454 104.746 120.192 104.786C119.93 104.825 119.662 104.793 119.417 104.691C119.172 104.59 118.959 104.424 118.801 104.211L117.185 102.038C117.055 101.863 116.974 101.657 116.949 101.441C116.923 101.224 116.956 101.005 117.042 100.804C117.128 100.604 117.265 100.43 117.439 100.3C117.614 100.169 117.82 100.087 118.036 100.061L120.588 99.7205C120.801 99.6941 121.017 99.7148 121.221 99.781C121.426 99.8473 121.613 99.9575 121.77 100.104ZM119.907 103.402C119.919 103.407 119.932 103.41 119.945 103.41C119.959 103.41 119.972 103.407 119.984 103.402C120 103.399 120.014 103.392 120.026 103.382C120.038 103.371 120.047 103.358 120.052 103.342L120.851 101.195C120.859 101.182 120.863 101.167 120.863 101.152C120.863 101.137 120.859 101.122 120.851 101.11C120.84 101.103 120.827 101.099 120.813 101.099C120.8 101.099 120.787 101.103 120.775 101.11L118.444 101.416L119.916 103.351C119.916 103.351 119.916 103.351 119.916 103.402L119.907 103.402Z" fill="#849BF6"/>
<path d="M101.561 77.1739H98.2966V71.0572H97.0106V78.2624H101.561V77.1739Z" fill="#849BF6"/>
<path d="M104.597 78.3673C106.147 78.3673 107.154 77.3337 107.154 75.616C107.154 73.9033 106.137 72.8597 104.597 72.8597C103.057 72.8597 102.04 73.9083 102.04 75.616C102.04 77.3337 103.047 78.3673 104.597 78.3673ZM104.597 77.3836C103.81 77.3836 103.301 76.7445 103.301 75.616C103.301 74.4925 103.815 73.8484 104.597 73.8484C105.385 73.8484 105.893 74.4925 105.893 75.616C105.893 76.7445 105.385 77.3836 104.597 77.3836Z" fill="#849BF6"/>
<path d="M112.607 74.857C112.523 73.7435 111.66 72.8597 110.265 72.8597C108.729 72.8597 107.732 73.9233 107.732 75.616C107.732 77.3337 108.729 78.3673 110.275 78.3673C111.6 78.3673 112.513 77.5883 112.612 76.4049H111.441C111.326 77.0041 110.918 77.3636 110.29 77.3636C109.502 77.3636 108.994 76.7245 108.994 75.616C108.994 74.5275 109.497 73.8684 110.28 73.8684C110.942 73.8684 111.336 74.2928 111.436 74.857H112.607Z" fill="#849BF6"/>
<path d="M115.284 77.4086C114.746 77.4086 114.387 77.1339 114.387 76.6995C114.387 76.2801 114.731 76.0105 115.329 75.9705L116.55 75.8956V76.3001C116.55 76.9392 115.987 77.4086 115.284 77.4086ZM114.91 78.3473C115.588 78.3473 116.251 77.9928 116.555 77.4186H116.58V78.2624H117.776V74.6173C117.776 73.5538 116.924 72.8597 115.613 72.8597C114.267 72.8597 113.425 73.5688 113.37 74.5574H114.521C114.601 74.118 114.975 73.8334 115.563 73.8334C116.176 73.8334 116.55 74.153 116.55 74.7072V75.0867L115.154 75.1666C113.868 75.2465 113.146 75.8107 113.146 76.7495C113.146 77.7032 113.888 78.3473 114.91 78.3473Z" fill="#849BF6"/>
<path d="M118.813 78.2624H120.054V71.0572H118.813V78.2624Z" fill="#849BF6"/>
<path d="M130.701 78.2624V71.0572H129.216L127.013 76.4948H126.973L124.77 71.0572H123.279V78.2624H124.441V73.1493H124.476L126.554 78.2025H127.432L129.51 73.1493H129.545V78.2624H130.701Z" fill="#849BF6"/>
<path d="M134.186 78.3673C135.736 78.3673 136.743 77.3337 136.743 75.616C136.743 73.9033 135.726 72.8597 134.186 72.8597C132.645 72.8597 131.629 73.9083 131.629 75.616C131.629 77.3337 132.635 78.3673 134.186 78.3673ZM134.186 77.3836C133.398 77.3836 132.89 76.7445 132.89 75.616C132.89 74.4925 133.403 73.8484 134.186 73.8484C134.973 73.8484 135.482 74.4925 135.482 75.616C135.482 76.7445 134.973 77.3836 134.186 77.3836Z" fill="#849BF6"/>
<path d="M137.54 78.2624H138.781V75.1966C138.781 74.4376 139.235 73.9233 139.948 73.9233C140.656 73.9233 141.005 74.3427 141.005 75.0917V78.2624H142.246V74.842C142.246 73.6187 141.583 72.8697 140.416 72.8697C139.604 72.8697 139.041 73.2492 138.757 73.8783H138.732V72.9696H137.54V78.2624Z" fill="#849BF6"/>
<path d="M145.521 73.8234C146.233 73.8234 146.712 74.3477 146.737 75.0967H144.269C144.319 74.3577 144.823 73.8234 145.521 73.8234ZM146.742 76.6796C146.607 77.119 146.169 77.4086 145.59 77.4086C144.778 77.4086 144.26 76.8393 144.26 75.9905V75.9156H147.953V75.5111C147.953 73.9033 147.016 72.8597 145.516 72.8597C143.99 72.8597 143.023 73.9632 143.023 75.636C143.023 77.3237 143.98 78.3673 145.565 78.3673C146.817 78.3673 147.744 77.6782 147.903 76.6796H146.742Z" fill="#849BF6"/>
<path d="M149.294 80.2298C150.5 80.2298 151.083 79.7854 151.537 78.4721L153.446 72.9696H152.14L150.894 77.2039H150.874L149.628 72.9696H148.272L150.151 78.2674C150.156 78.2824 150.082 78.547 150.082 78.562C149.942 79.0514 149.678 79.2461 149.164 79.2461C149.09 79.2461 148.87 79.2411 148.805 79.2261V80.2098C148.87 80.2248 149.224 80.2298 149.294 80.2298Z" fill="#849BF6"/>
<path d="M111.107 90.193V84.0762H113.255V82.9877H107.673V84.0762H109.826V90.193H111.107Z" fill="#849BF6"/>
<path d="M113.166 90.193H114.407V87.1121C114.407 86.3681 114.83 85.9137 115.533 85.9137C115.743 85.9137 115.932 85.9437 116.037 85.9837V84.8602C115.947 84.8402 115.807 84.8102 115.648 84.8102C115.025 84.8102 114.561 85.1797 114.382 85.8239H114.357V84.9001H113.166V90.193Z" fill="#849BF6"/>
<path d="M118.484 89.3391C117.946 89.3391 117.587 89.0645 117.587 88.6301C117.587 88.2106 117.931 87.941 118.529 87.9011L119.75 87.8262V88.2306C119.75 88.8698 119.187 89.3391 118.484 89.3391ZM118.11 90.2778C118.788 90.2778 119.451 89.9233 119.755 89.3491H119.78V90.193H120.976V86.5479C120.976 85.4843 120.124 84.7903 118.813 84.7903C117.467 84.7903 116.625 85.4993 116.57 86.488H117.722C117.801 86.0486 118.175 85.7639 118.763 85.7639C119.376 85.7639 119.75 86.0835 119.75 86.6378V87.0173L118.355 87.0971C117.069 87.177 116.346 87.7413 116.346 88.68C116.346 89.6337 117.089 90.2778 118.11 90.2778Z" fill="#849BF6"/>
<path d="M121.978 90.193H123.22V87.1271C123.22 86.3681 123.673 85.8538 124.386 85.8538C125.094 85.8538 125.443 86.2733 125.443 87.0222V90.193H126.684V86.7726C126.684 85.5492 126.021 84.8003 124.854 84.8003C124.042 84.8003 123.479 85.1797 123.195 85.8089H123.17V84.9001H121.978V90.193Z" fill="#849BF6"/>
<path d="M127.586 86.4181C127.586 87.182 128.08 87.6913 129.057 87.921L130.019 88.1457C130.532 88.2756 130.726 88.4403 130.726 88.7499C130.726 89.1444 130.353 89.389 129.749 89.389C129.121 89.389 128.747 89.1194 128.673 88.6351H127.451C127.536 89.6387 128.379 90.2978 129.705 90.2978C131.04 90.2978 131.963 89.6237 131.963 88.6251C131.963 87.8411 131.549 87.4317 130.492 87.182L129.55 86.9723C129.032 86.8475 128.792 86.6478 128.792 86.3482C128.792 85.9637 129.151 85.704 129.7 85.704C130.278 85.704 130.642 85.9837 130.681 86.438H131.838C131.808 85.4594 130.966 84.7903 129.724 84.7903C128.438 84.7903 127.586 85.4494 127.586 86.4181Z" fill="#849BF6"/>
<path d="M133.099 90.193H134.34V85.8588H135.377V84.9151H134.32V84.4807C134.32 84.0513 134.535 83.8266 135.008 83.8266C135.153 83.8266 135.297 83.8415 135.402 83.8565V82.9877C135.247 82.9577 134.978 82.9328 134.734 82.9328C133.588 82.9328 133.099 83.4171 133.099 84.4457V84.9151H132.376V85.8588H133.099V90.193Z" fill="#849BF6"/>
<path d="M138.283 85.754C138.996 85.754 139.474 86.2783 139.499 87.0272H137.032C137.082 86.2882 137.585 85.754 138.283 85.754ZM139.504 88.6101C139.37 89.0495 138.931 89.3391 138.353 89.3391C137.54 89.3391 137.022 88.7699 137.022 87.921V87.8461H140.715V87.4417C140.715 85.8339 139.778 84.7903 138.278 84.7903C136.753 84.7903 135.786 85.8938 135.786 87.5665C135.786 89.2542 136.743 90.2978 138.328 90.2978C139.579 90.2978 140.506 89.6088 140.666 88.6101H139.504Z" fill="#849BF6"/>
<path d="M141.518 90.193H142.759V87.1121C142.759 86.3681 143.183 85.9137 143.886 85.9137C144.095 85.9137 144.284 85.9437 144.389 85.9837V84.8602C144.299 84.8402 144.16 84.8102 144 84.8102C143.377 84.8102 142.914 85.1797 142.734 85.8239H142.709V84.9001H141.518V90.193Z" fill="#849BF6"/>
<path d="M218.637 47.4972C218.802 47.457 218.852 47.0834 218.749 46.6628C218.647 46.2421 218.431 45.9337 218.266 45.9738C218.102 46.014 218.052 46.3875 218.154 46.8082C218.257 47.2289 218.473 47.5373 218.637 47.4972Z" fill="#041C39"/>
<path d="M43.6789 40.2714C43.7108 39.8396 43.5999 39.4794 43.4313 39.4669C43.2626 39.4544 43.1 39.7943 43.0681 40.2261C43.0362 40.6579 43.1471 41.0181 43.3158 41.0306C43.4845 41.0431 43.6471 40.7032 43.6789 40.2714Z" fill="#041C39"/>
<path d="M219.332 51.7059C219.715 51.5866 220.124 51.5185 220.515 51.4247C220.141 51.5866 219.783 51.7826 219.409 51.9275L219.332 51.7059Z" fill="#041C39"/>
<path d="M43.1346 46.3457C42.5796 46.1422 42.0419 45.8943 41.5267 45.6043C42.0643 45.8613 42.6381 46.0338 43.2281 46.1156L43.1346 46.3457Z" fill="#041C39"/>
</svg>
