<svg width="301" height="181" viewBox="0 0 301 181" fill="none" xmlns="http://www.w3.org/2000/svg">
<path d="M278.679 149.708C278.679 149.708 271.587 155.587 258.763 159.233C250.032 161.67 240.936 162.539 231.9 161.8C229.821 161.532 227.726 161.392 225.63 161.381C224.619 161.381 223.471 161.381 222.203 161.381C216.367 161.497 210.543 161.963 204.763 162.776C193.856 164.296 183.066 166.561 172.468 169.554L171.8 169.734C171.8 169.734 134.366 179.695 97.7635 180.654C97.7635 180.654 97.0183 180.731 95.6563 180.808H95.3822C90.9 181.049 86.4085 181.063 81.9248 180.85C75.6643 180.573 69.4305 179.864 63.2679 178.728C53.4083 176.897 42.7093 173.645 33.0724 167.996L32.9525 167.928C18.3901 159.37 6.20056 145.335 2.87692 122.451C2.87692 122.451 -15.4117 51.4191 40.2337 14.5683C40.2337 14.5683 58.9249 2.96363 89.7971 14.5255C89.7971 14.5255 117.448 22.5615 170.789 6.6179C170.789 6.6179 241.211 -21.9744 276.572 39.7032C276.572 39.7117 330.102 108.638 278.679 149.708Z" fill="#F4F4F9"/>
<path d="M164.733 60.2253C165.441 61.5469 166.303 62.7794 167.303 63.8966L167.577 63.5458L167.894 62.2706L166.018 59.1213L164.039 56.725V57.8205L164.733 60.2253Z" fill="#BECBF4"/>
<path d="M154.06 55.8949C154.06 55.8949 154.06 57.1358 155.97 56.9219L157.495 56.8277C159.503 56.6507 161.519 56.5822 163.534 56.6223L164.476 58.8474L165.084 59.823C165.376 60.6274 165.841 61.3579 166.446 61.9625L167.423 63.4174L167.791 63.0237L167.56 61.3891L164.202 56.4512L163.08 55.9976L159.465 54.5599C158.311 54.7143 157.167 54.9372 156.039 55.2274C156.039 55.2274 154.463 55.3472 154.06 55.8949Z" fill="#C9D3F9"/>
<path d="M157.007 55.3643L159.577 54.5085L161.101 54.1405L163.594 53.6869C163.903 53.6201 164.222 53.6199 164.531 53.6863C164.84 53.7527 165.131 53.8842 165.384 54.072L167.843 56.434C168.394 56.7883 169.012 57.0243 169.659 57.1272C170.613 57.4429 171.407 58.1144 171.877 59.0014C173.601 60.5212 175.594 61.7055 177.754 62.4931C178.114 62.63 178.473 62.7755 178.816 62.9467C180.454 63.7518 182.285 64.0837 184.101 63.9052V73.2077L178.473 72.0781C178.473 72.0781 172.991 71.2993 170.301 71.1367L166.507 70.5633L162.223 70.9741C161.503 70.9788 160.788 70.8361 160.125 70.5548L159.268 70.4178C158.48 70.4266 157.697 70.3082 156.947 70.0669C156.947 70.0669 156.39 69.1256 157.803 68.4752C159.109 68.1776 160.45 68.0709 161.787 68.1585C161.787 68.1585 164.81 68.595 165.796 66.6352C166.414 65.7884 166.932 64.8722 167.337 63.9052C167.6 63.1956 167.6 62.4154 167.337 61.7058C167.337 61.7058 164.99 57.4268 163.294 56.4169C162.372 56.513 161.445 56.5416 160.519 56.5025C160.519 56.5025 158.009 57.2214 156.878 56.6565C156.827 56.648 156.159 55.835 157.007 55.3643Z" fill="#DAE0FA"/>
<path d="M216.704 86.738C216.704 86.738 203.169 76.9733 180.161 75.6126C180.041 75.6049 179.927 75.5606 179.833 75.4855C179.74 75.4104 179.672 75.3084 179.638 75.1932C179.141 73.4816 177.343 66.4127 179.527 63.0922C179.596 62.9957 179.69 62.9189 179.798 62.8694C179.906 62.8199 180.025 62.7993 180.144 62.8098L202.321 64.2219C213.523 65.39 224.491 68.2016 234.873 72.5659L216.704 86.738Z" fill="#D2DBF9"/>
<path d="M228.311 70.0242C229.358 72.0581 230.053 74.2542 230.367 76.5197V78.8047L241.588 72.0524V68.3981C241.588 68.3981 236.157 65.4114 228.311 70.0242Z" fill="#C9D3F9"/>
<path d="M217.963 47.7819C217.963 47.7819 216.558 71.0939 225.236 74.2176C225.236 74.2176 234.196 76.494 241.254 73.9437C241.254 73.9437 244.895 40.8071 228.062 39.3608C228.062 39.3608 221.098 37.4438 217.963 47.7819Z" fill="#DAE0FA"/>
<path d="M218.657 38.6847C217.234 39.9799 216.262 41.6947 215.881 43.5799C215.719 44.2938 215.728 45.036 215.908 45.7456C216.088 46.4552 216.434 47.112 216.918 47.6621C217.292 48.2636 217.855 48.7241 218.52 48.9715C219.313 49.1357 220.04 49.5329 220.606 50.1123C221.172 50.6917 221.552 51.4269 221.698 52.2235V54.0121C221.698 54.1869 221.767 54.3545 221.891 54.4781C222.015 54.6017 222.182 54.6711 222.357 54.6711H223.051C223.204 54.6697 223.352 54.6151 223.469 54.5167C223.587 54.4184 223.666 54.2823 223.694 54.132C223.785 53.571 224.015 53.0416 224.362 52.5915C224.617 52.2986 224.975 52.1142 225.362 52.076C225.749 52.0378 226.136 52.1488 226.443 52.3861C227.146 52.8996 228.054 54.0977 228.534 56.7935C229.495 60.7761 231.668 64.3636 234.752 67.0631C236.01 68.1224 237.605 68.699 239.25 68.6891H240.663C241.196 68.6898 241.719 68.5421 242.173 68.2624C242.627 67.9828 242.994 67.5823 243.233 67.1059C244.698 63.9822 245.64 59.8316 246.265 55.2188C247.824 43.6227 245.803 36.5367 234.213 34.8593C228.645 34.0206 224.096 34.2517 218.657 38.6847Z" fill="#041C39"/>
<path d="M258.763 159.233C250.032 161.67 240.936 162.539 231.9 161.8C229.821 161.532 227.726 161.392 225.63 161.381C224.619 161.381 223.471 161.381 222.203 161.381C216.367 161.497 210.543 161.963 204.763 162.776C208.857 137.855 209.902 105.326 209.902 105.326C210.613 100.148 211.95 95.0763 213.886 90.2211C216.498 84.0508 219.025 82.6558 219.025 82.6558C222.488 79.7889 226.217 77.2585 230.161 75.0991C231.303 74.443 232.545 73.7783 233.887 73.1051L234.924 72.583C236.98 71.5817 239.207 70.589 241.58 69.6647C243.082 69.0942 244.641 68.5237 246.257 67.9531C246.257 67.9531 252.51 65.8308 254.557 93.6272L257.573 131.471C257.573 131.471 258.506 145.908 258.763 159.233Z" fill="#EBEEFB"/>
<path d="M228.782 153.448L225.63 161.372C224.619 161.372 223.471 161.372 222.203 161.372L225.304 137.41C225.799 133.602 226.042 129.765 226.032 125.925L225.989 110.375L230.529 129.554C232.411 137.509 231.801 145.85 228.782 153.448Z" fill="#DAE0FA"/>
<path d="M84.015 56.9732C84.015 56.9732 85.4798 67.4397 82.456 77.4269C81.97 79.0644 81.0519 80.5412 79.7979 81.7021C78.5439 82.8631 77.0003 83.6655 75.329 84.0251C69.6154 85.2232 60.561 86.2331 56.8262 81.7915C56.8262 81.7915 54.0594 54.945 59.9357 48.7404C59.9357 48.7404 73.6414 40.3536 82.8072 52.1636L84.015 56.9732Z" fill="#DAE0FA"/>
<path d="M59.8243 42.4588C59.8243 42.4588 65.7007 38.9158 75.3204 41.7143C79.0239 42.9933 82.3404 45.1934 84.9573 48.1071C85.7572 49.1308 86.148 50.4148 86.0537 51.71C85.9938 53.4216 85.6083 55.6895 84.015 55.9891C84.015 55.9891 77.5647 55.758 75.5431 63.9566C75.5217 64.0493 75.4694 64.1321 75.3946 64.1912C75.3199 64.2503 75.2273 64.2822 75.132 64.2818H73.9841C73.8545 64.2811 73.7273 64.2458 73.6159 64.1796C73.5045 64.1134 73.4128 64.0187 73.3502 63.9052C72.9647 63.1778 72.0396 61.6545 70.9431 61.5175C70.9431 61.5175 68.9558 61.3977 67.3968 65.9506C66.8895 67.5048 66.5674 69.1134 66.4374 70.7431C66.2061 73.2163 64.8098 78.9588 56.6378 78.7962C56.3822 78.7792 56.1367 78.6896 55.9304 78.538C55.724 78.3864 55.5652 78.179 55.4728 77.9403C53.3642 71.2761 51.89 64.4278 51.0698 57.4867C51.0698 57.4867 49.4936 46.9432 59.8243 42.4588Z" fill="#041C39"/>
<path d="M140.748 103.811C140.918 103.764 141.096 103.753 141.271 103.778C141.445 103.802 141.613 103.863 141.763 103.955C141.914 104.047 142.043 104.17 142.144 104.314C142.245 104.459 142.315 104.623 142.35 104.795C142.35 104.795 141.442 106.173 141.091 106.661C140.72 107.609 140.206 108.495 139.566 109.288C139.566 109.288 136.722 113.525 135.471 114.911C134.208 116.664 133.476 118.744 133.364 120.902L125.535 113.49L125.826 109.143C125.931 108.368 126.077 107.6 126.263 106.841L132.396 98.6422L140.748 103.811Z" fill="#DAE0FA"/>
<path d="M124.421 104.522C124.421 104.522 124.036 104.761 123.522 104.265C123.522 104.265 123.213 103.999 123.522 102.981L123.659 102.699C124.042 102.281 124.483 101.92 124.97 101.629L126.246 102.605C125.746 102.837 125.298 103.165 124.927 103.572C124.835 103.828 124.729 104.08 124.61 104.325C124.564 104.405 124.499 104.472 124.421 104.522Z" fill="#BECBF4"/>
<path d="M126.786 102.288C126.631 102.464 126.42 102.58 126.188 102.618C125.957 102.655 125.72 102.611 125.518 102.493C125.518 102.493 124.935 102.108 124.944 101.689L125.723 99.9772C125.88 99.6665 126.115 99.4015 126.405 99.2081C126.694 99.0147 127.029 98.8993 127.377 98.8732L128.636 100.165C128.125 100.357 127.686 100.701 127.377 101.15C127.243 101.559 127.044 101.943 126.786 102.288Z" fill="#C9D3F9"/>
<path d="M131.146 97.2301C131.146 97.2301 129.681 96.0919 129.689 95.296C129.689 95.296 129.835 94.3375 130.709 94.7141C131.326 95.0829 131.977 95.3924 132.653 95.6383L131.146 97.2301Z" fill="#DAE0FA"/>
<path d="M131.146 97.2301C130.228 96.8681 129.217 96.817 128.267 97.0846C127.937 97.3352 127.709 97.697 127.625 98.103C127.625 98.103 127.102 99.3011 127.454 99.6777C127.454 99.6777 128.19 100.362 128.756 100.114C129.07 99.8864 129.289 99.5514 129.372 99.1728L129.578 98.7106L131.146 97.2301Z" fill="#DAE0FA"/>
<path d="M32.9524 167.936L33.1666 151.847C27.3845 144.453 28.1126 137.418 28.1126 137.418C29.7316 114.474 33.4236 100.063 35.548 93.3533C36.4305 90.574 38.1434 88.1311 40.4563 86.3528L42.675 85.2317C44.0683 84.5338 45.498 83.9111 46.958 83.3661H47.0094L47.1636 83.2976C47.2092 83.273 47.2583 83.2557 47.3092 83.2463L48.1658 82.9467L49.2537 82.613L49.4936 82.536L49.6563 82.4846C50.8128 82.1252 51.9777 81.8171 53.1599 81.5689L53.5539 81.4833L54.6075 81.2694L55.8582 81.064H56.1666L56.5692 81.0126H56.7919C57.1774 81.0126 57.5457 80.9271 57.914 80.9014L59.1733 80.7987H59.6273H60.1241H61.0835H61.5289C63.0366 80.7987 64.0131 80.7987 64.0131 80.7987C65.3237 80.8586 66.6343 80.987 67.9364 81.1752H68.1248C68.6388 81.2523 69.1442 81.3464 69.641 81.4491L69.9751 81.5261C70.412 81.6288 70.8317 81.7401 71.2258 81.8513H71.3457L71.9796 82.0396L72.6049 82.245C73.0846 82.4162 73.5729 82.5959 74.044 82.7927L75.6116 83.4346L77.4704 84.2048L84.7259 87.2086H84.7688L89.6343 89.2198C93.2904 90.8257 96.1801 93.7863 97.695 97.4782L110.621 128.997L122.725 113.045C122.845 112.892 122.995 112.765 123.166 112.672C123.337 112.579 123.525 112.523 123.719 112.506C124.352 112.453 124.988 112.453 125.62 112.506C127.264 112.608 128.867 113.054 130.326 113.814C131.786 114.575 133.069 115.634 134.092 116.922L134.247 117.187L134.992 118.497C135.16 118.782 135.248 119.107 135.248 119.438C135.248 119.769 135.16 120.094 134.992 120.379L118.374 146.986C118.374 146.986 112.737 153.679 106.09 149.887C105.028 149.256 104.123 148.393 103.443 147.363L92.3754 131.103L92.3155 133.225C92.3155 133.353 92.3155 133.49 92.3155 133.636V134.278C92.2298 137.641 92.1013 143.212 92.0842 148.784C92.0842 152.874 92.0842 156.974 92.2384 160.174V160.285V160.491C92.2898 161.809 92.3669 162.956 92.4697 163.914L95.6734 180.799H95.3993C90.9171 181.04 86.4256 181.055 81.9419 180.842C75.6814 180.565 69.4476 179.856 63.285 178.719C53.4254 176.888 42.7264 173.636 33.0895 167.988L32.9524 167.936Z" fill="#5165F3"/>
<path d="M110.613 128.938L113.568 136.178L122.717 112.994L110.613 128.938Z" fill="#5660F3"/>
<path d="M46.9324 83.3661C46.9324 83.3661 62.8653 80.7046 79.0381 85.4628L84.7517 87.1744L75.5945 83.3918C71.9539 81.6863 67.9987 80.7538 63.9789 80.6532C60.5344 80.524 57.0863 80.7823 53.6996 81.4235C51.408 81.9393 49.1485 82.5879 46.9324 83.3661Z" fill="#5660F3"/>
<path d="M63.2679 178.737C53.4083 176.905 42.7092 173.653 33.0724 168.005L33.1666 151.847L37.0728 105.429L63.2679 178.737Z" fill="#5660F3"/>
<path d="M148.86 95.373L141.151 88.0901C141.046 87.9851 140.922 87.9017 140.786 87.8448C140.649 87.7879 140.502 87.7586 140.354 87.7586C140.206 87.7586 140.059 87.7879 139.923 87.8448C139.786 87.9017 139.662 87.9851 139.558 88.0901L123.479 105.078C123.374 105.182 123.29 105.306 123.233 105.443C123.176 105.579 123.147 105.726 123.147 105.874C123.147 106.022 123.176 106.168 123.233 106.305C123.29 106.441 123.374 106.565 123.479 106.67L131.188 113.952C131.407 114.157 131.698 114.268 131.998 114.26C132.298 114.252 132.583 114.126 132.79 113.91L148.869 96.922C149.067 96.7123 149.177 96.4343 149.175 96.1458C149.174 95.8572 149.061 95.5805 148.86 95.373ZM148.492 97.0247L133.073 113.285C132.967 113.397 132.84 113.487 132.698 113.55C132.557 113.613 132.405 113.647 132.251 113.651C132.097 113.655 131.943 113.628 131.799 113.573C131.655 113.517 131.523 113.434 131.411 113.328L124.181 106.481C123.962 106.259 123.839 105.959 123.839 105.647C123.839 105.335 123.962 105.035 124.181 104.812L139.6 88.5523C139.708 88.4345 139.839 88.3398 139.985 88.2736C140.13 88.2075 140.288 88.1714 140.448 88.1674C140.608 88.1634 140.767 88.1916 140.916 88.2504C141.064 88.3092 141.2 88.3973 141.314 88.5095L148.535 95.3559C148.643 95.4677 148.727 95.5999 148.783 95.7447C148.84 95.8895 148.867 96.044 148.863 96.1992C148.859 96.3545 148.824 96.5074 148.76 96.6491C148.697 96.7908 148.605 96.9185 148.492 97.0247Z" fill="#B8C4F8"/>
<path d="M148.492 97.0247L133.073 113.285C132.967 113.397 132.84 113.487 132.699 113.55C132.557 113.613 132.405 113.647 132.251 113.651C132.097 113.655 131.943 113.628 131.799 113.573C131.655 113.517 131.523 113.434 131.411 113.328L124.181 106.481C123.962 106.259 123.839 105.959 123.839 105.647C123.839 105.335 123.962 105.035 124.181 104.812L139.6 88.5522C139.709 88.4345 139.839 88.3397 139.985 88.2736C140.131 88.2075 140.288 88.1714 140.448 88.1674C140.608 88.1634 140.767 88.1916 140.916 88.2504C141.064 88.3092 141.2 88.3973 141.314 88.5095L148.535 95.3559C148.643 95.4677 148.727 95.5999 148.783 95.7447C148.84 95.8895 148.867 96.044 148.863 96.1992C148.859 96.3545 148.824 96.5074 148.76 96.6491C148.697 96.7908 148.605 96.9185 148.492 97.0247Z" fill="#EBEEFB"/>
<path d="M142.768 89.9384L146.856 93.8023L146.621 94.051C146.325 94.3626 145.919 94.5444 145.489 94.5563C145.06 94.5682 144.644 94.4093 144.332 94.1145L142.589 92.4678C142.277 92.173 142.096 91.7664 142.084 91.3376C142.072 90.9088 142.231 90.4928 142.526 90.1812L142.761 89.9325L142.768 89.9384Z" fill="#B8C4F8"/>
<path d="M145.814 93.5415L143.088 90.9655C143.036 90.9168 142.955 90.919 142.906 90.9705L142.865 91.0141C142.816 91.0656 142.819 91.1468 142.87 91.1955L145.596 93.7715C145.647 93.8202 145.729 93.8179 145.777 93.7664L145.819 93.7229C145.867 93.6714 145.865 93.5902 145.814 93.5415Z" fill="#EBEEFB"/>
<path d="M144.102 93.0152C144.19 92.9225 144.18 92.7709 144.08 92.6767C143.981 92.5825 143.829 92.5813 143.741 92.674C143.653 92.7667 143.663 92.9183 143.762 93.0125C143.862 93.1067 144.014 93.1079 144.102 93.0152Z" fill="#EBEEFB"/>
<path d="M136.985 99.8961L136.832 100.058L137.006 100.222L137.159 100.061L136.985 99.8961Z" fill="#B8C4F8"/>
<path d="M138.204 101.03L137.896 101.355L137.742 101.526L137.587 101.689L137.493 101.792L137.433 101.851L137.279 102.014L137.125 102.177L138.333 103.34L138.641 103.015L138.804 102.853L138.932 102.707L139.241 102.382L139.395 102.219L138.204 101.03ZM138.778 102.502L138.727 102.562L138.624 102.664L138.47 102.827L138.315 102.998L137.459 102.142L137.613 101.98L137.707 101.886L137.767 101.817L138.076 101.492L138.23 101.321L139.086 102.177L138.778 102.502Z" fill="#B8C4F8"/>
<path d="M134.966 98.8989L134.812 99.0615L134.658 99.2241L135.172 99.7119L135.326 99.5493L135.48 99.3867L135.643 99.2241L135.12 98.7363L134.966 98.8989Z" fill="#B8C4F8"/>
<path d="M135.848 100.064L135.695 100.226L136.044 100.555L136.197 100.394L135.848 100.064Z" fill="#B8C4F8"/>
<path d="M136.217 100.696L136.063 100.859L136.234 101.021L136.388 100.859L136.559 101.03L136.405 101.192L136.576 101.355L136.739 101.192L136.911 101.355L137.065 101.192L136.893 101.03L137.048 100.867L137.562 101.355L137.716 101.192L137.373 100.867L137.527 100.705L137.682 100.533L137.51 100.371L137.356 100.533L137.005 100.208L136.851 100.371L136.696 100.533L136.868 100.696L136.714 100.859L136.542 100.696L136.696 100.533L136.525 100.371L136.679 100.208L136.337 99.883L136.491 99.7204L136.645 99.5578L136.465 99.3867L136.311 99.5493L136.157 99.7204L136.003 99.883L136.354 100.208L136.2 100.371L136.371 100.533L136.217 100.696Z" fill="#B8C4F8"/>
<path d="M137.232 101.369L137.079 101.531L137.253 101.695L137.406 101.534L137.232 101.369Z" fill="#B8C4F8"/>
<path d="M138.452 102.502L138.607 102.339L138.761 102.177L138.238 101.68L138.084 101.843L137.93 102.005L137.776 102.168L138.298 102.664L138.452 102.502Z" fill="#B8C4F8"/>
<path d="M135.077 98.0859L133.998 99.2241L135.206 100.371L135.669 99.883L135.823 99.7204L136.131 99.3953L136.294 99.2327L135.077 98.0859ZM135.343 99.883L135.189 100.046L134.332 99.1898L135.103 98.3769L135.96 99.2327L135.343 99.883Z" fill="#B8C4F8"/>
<path d="M135.539 100.383L135.386 100.545L135.56 100.71L135.714 100.548L135.539 100.383Z" fill="#B8C4F8"/>
<path d="M135.889 100.711L135.735 100.873L135.91 101.038L136.063 100.876L135.889 100.711Z" fill="#B8C4F8"/>
<path d="M136.238 101.043L136.085 101.205L136.259 101.369L136.413 101.208L136.238 101.043Z" fill="#B8C4F8"/>
<path d="M136.573 101.377L136.42 101.539L136.594 101.704L136.747 101.542L136.573 101.377Z" fill="#B8C4F8"/>
<path d="M136.247 101.374L136.094 101.535L136.268 101.7L136.421 101.538L136.247 101.374Z" fill="#B8C4F8"/>
<path d="M137.502 103.152L137.33 102.99L137.484 102.827L137.313 102.664L137.159 102.827L136.979 102.664L136.825 102.827L136.654 102.664L136.499 102.827L136.671 102.99L136.517 103.152L136.696 103.315L136.851 103.152L137.005 102.99L137.176 103.152L137.022 103.315L136.868 103.477L137.382 103.974L137.227 104.136L137.407 104.299L137.562 104.136L137.716 103.974L137.87 103.811L137.699 103.64L137.544 103.811L137.193 103.477L137.347 103.315L137.699 103.64L137.853 103.477L138.024 103.649L138.178 103.477L137.656 102.99L137.502 103.152Z" fill="#B8C4F8"/>
<path d="M134.598 101.021L134.752 100.859L134.572 100.696L134.726 100.533L134.906 100.696L134.752 100.859L134.923 101.021L135.077 100.859L135.249 101.021L135.095 101.184L134.923 101.021L134.769 101.184L135.112 101.518L134.958 101.68L135.129 101.843L135.292 101.68L135.446 101.518L135.266 101.355L135.42 101.184L135.574 101.021L134.366 99.8745L134.212 100.037L134.555 100.371L134.401 100.533L134.058 100.2L133.904 100.371L134.075 100.533L133.921 100.696L134.092 100.859L134.247 100.696L134.598 101.021Z" fill="#B8C4F8"/>
<path d="M133.553 100.037L133.733 100.2L133.878 100.037L134.041 99.8745L133.861 99.7119L134.015 99.5493L133.844 99.3867L133.69 99.5493L133.536 99.7119L133.381 99.8745L133.227 100.037L133.073 100.2L132.919 100.362L132.765 100.525L132.61 100.696L132.456 100.859L132.628 101.021L132.782 100.859L132.936 100.696L133.107 100.859L133.262 100.696L133.09 100.533L133.244 100.362L133.416 100.533L133.57 100.371L133.399 100.2L133.553 100.037Z" fill="#B8C4F8"/>
<path d="M133.728 100.229L133.574 100.391L133.749 100.555L133.902 100.394L133.728 100.229Z" fill="#B8C4F8"/>
<path d="M134.594 101.035L134.441 101.197L134.615 101.361L134.768 101.2L134.594 101.035Z" fill="#B8C4F8"/>
<path d="M135.326 102.331L135.48 102.168L135.634 102.005L135.806 102.168L135.96 102.005L136.14 102.168L135.986 102.331L136.328 102.656L136.482 102.493L136.311 102.331L136.465 102.168L136.637 102.331L136.482 102.493L136.654 102.664L136.808 102.493L136.962 102.331L136.791 102.168L136.945 102.005L137.099 101.843L136.928 101.68L136.774 101.843L136.619 102.005L136.448 101.843L136.294 102.005L135.943 101.68L135.789 101.843L135.617 101.68L135.463 101.843L135.309 102.005L135.129 101.843L134.975 102.005L135.326 102.331Z" fill="#B8C4F8"/>
<path d="M136.344 103.002L136.191 103.164L136.365 103.328L136.518 103.167L136.344 103.002Z" fill="#B8C4F8"/>
<path d="M134.634 101.694L134.481 101.856L134.655 102.02L134.808 101.859L134.634 101.694Z" fill="#B8C4F8"/>
<path d="M136.902 104.136L136.559 103.803L136.714 103.64L136.542 103.477L136.388 103.64L136.225 103.803L136.405 103.965L136.251 104.136L136.422 104.299L136.268 104.462L136.114 104.624L136.457 104.949L136.611 104.787L136.765 104.624L136.594 104.462L136.748 104.299L136.919 104.462L136.765 104.624L136.945 104.787L137.099 104.624L137.253 104.462L137.073 104.299L137.228 104.136L137.056 103.974L136.902 104.136Z" fill="#B8C4F8"/>
<path d="M133.613 101.021L133.441 100.859L133.287 101.021L133.124 101.184L133.304 101.346L133.458 101.184L133.613 101.021Z" fill="#B8C4F8"/>
<path d="M134.152 101.843L134.324 102.005L134.478 101.843L134.306 101.68L134.461 101.518L134.281 101.346L134.135 101.509L133.955 101.346L134.109 101.184L134.281 101.346L134.444 101.184L134.092 100.859L133.938 101.021L133.767 100.859L133.613 101.021L133.784 101.184L133.63 101.346L133.476 101.509L133.647 101.672L133.801 101.509L133.972 101.68L133.818 101.843L133.647 101.672L133.493 101.843L133.844 102.168L133.998 102.005L134.152 101.843Z" fill="#B8C4F8"/>
<path d="M136.08 103.974L136.234 103.811L136.063 103.649L135.908 103.811L135.728 103.649L135.883 103.477L136.063 103.649L136.217 103.486L136.037 103.315L136.191 103.152L136.02 102.99L136.174 102.827L135.831 102.502L135.677 102.664L135.326 102.339L135.172 102.502L134.829 102.168L134.675 102.339L134.521 102.502L134.692 102.664L134.846 102.502L135.369 102.99L135.077 103.34L134.898 103.178L134.589 103.503L134.769 103.666L134.923 103.503L135.095 103.666L134.94 103.837L134.769 103.666L134.606 103.828L134.452 103.999L134.975 104.487L134.82 104.65L134.992 104.812L135.146 104.65L135.497 104.975L135.651 104.812L135.96 104.487L136.114 104.325L136.268 104.162L136.08 103.974ZM135.617 104.462L135.463 104.624L134.94 104.136L135.249 103.811L135.403 103.64L135.926 104.136L135.617 104.462Z" fill="#B8C4F8"/>
<path d="M133.299 101.358L133.146 101.52L133.32 101.685L133.473 101.523L133.299 101.358Z" fill="#B8C4F8"/>
<path d="M134.864 102.836L134.711 102.998L134.885 103.163L135.038 103.001L134.864 102.836Z" fill="#B8C4F8"/>
<path d="M134.366 102.664L134.521 102.502L134.341 102.331L134.504 102.168L134.324 102.005L134.169 102.168L134.015 102.331L134.187 102.502L134.032 102.664L133.861 102.493L134.015 102.331L133.844 102.168L133.69 102.331L133.536 102.493L133.381 102.656L133.227 102.827L133.073 102.99L133.416 103.315L133.57 103.152L133.741 103.315L133.904 103.152L134.058 102.99L134.229 103.152L134.384 102.99L134.555 103.152L134.709 102.99L134.366 102.664ZM133.724 102.99L133.553 102.827L133.707 102.664L133.878 102.827L133.724 102.99Z" fill="#B8C4F8"/>
<path d="M132.302 101.021L131.839 101.509L131.685 101.68L131.377 102.005L131.223 102.168L132.43 103.315L132.739 102.99L132.902 102.827L133.056 102.656L133.21 102.493L133.518 102.168L132.302 101.021ZM132.568 102.818L132.413 102.99L131.557 102.134L131.711 101.971L132.173 101.483L132.328 101.312L133.184 102.168L132.568 102.818Z" fill="#B8C4F8"/>
<path d="M135.415 103.985L135.262 104.146L135.436 104.311L135.589 104.149L135.415 103.985Z" fill="#B8C4F8"/>
<path d="M136.457 104.97L136.304 105.131L136.479 105.296L136.632 105.135L136.457 104.97Z" fill="#B8C4F8"/>
<path d="M134.418 103.64L134.572 103.477L134.221 103.144L134.067 103.315L133.912 103.477L134.084 103.64L134.247 103.477L134.418 103.64Z" fill="#B8C4F8"/>
<path d="M135.977 105.112L135.823 105.275L135.668 105.437L135.146 104.949L134.992 105.112L134.82 104.949L134.666 105.112L135.009 105.437L135.163 105.275L135.343 105.437L135.189 105.6L135.531 105.925L135.377 106.096L135.549 106.259L135.703 106.096L135.857 105.934L136.011 105.762L136.165 105.6L136.32 105.437L136.148 105.275L136.302 105.112L136.131 104.949L135.977 105.112Z" fill="#B8C4F8"/>
<path d="M133.93 103.803L133.758 103.64L133.604 103.803L133.955 104.128L134.11 103.965L134.281 104.128L134.435 103.965L134.084 103.64L133.93 103.803Z" fill="#B8C4F8"/>
<path d="M132.55 102.493L132.705 102.331L132.859 102.168L132.336 101.672L132.182 101.834L132.028 101.997L131.874 102.159L132.396 102.656L132.55 102.493Z" fill="#B8C4F8"/>
<path d="M134.629 104.476L134.476 104.638L134.65 104.802L134.803 104.641L134.629 104.476Z" fill="#B8C4F8"/>
<path d="M132.76 103.332L132.607 103.493L132.781 103.658L132.934 103.496L132.76 103.332Z" fill="#B8C4F8"/>
<path d="M133.45 103.965L133.296 104.128L133.818 104.616L133.972 104.453L134.127 104.29L133.955 104.128L133.801 104.29L133.45 103.965Z" fill="#B8C4F8"/>
<path d="M134.137 104.639L133.984 104.801L134.332 105.13L134.485 104.968L134.137 104.639Z" fill="#B8C4F8"/>
<path d="M135.003 105.457L134.85 105.619L135.025 105.783L135.178 105.622L135.003 105.457Z" fill="#B8C4F8"/>
<path d="M139.558 103.34L139.446 103.238L140.448 102.177L139.378 101.167L139.48 101.064L140.663 102.177L139.558 103.34Z" fill="#B8C4F8"/>
<path d="M135.617 107.5L134.444 106.387L134.546 106.276L135.609 107.286L136.508 106.336L136.619 106.447L135.617 107.5Z" fill="#B8C4F8"/>
<path d="M133.733 97.8377L133.844 97.949L134.846 96.8878L135.917 97.8976L136.02 97.7864L134.838 96.6738L133.733 97.8377Z" fill="#B8C4F8"/>
<path d="M129.792 101.997L130.974 103.109L131.077 103.007L130.015 101.997L130.906 101.047L130.794 100.936L129.792 101.997Z" fill="#B8C4F8"/>
<path d="M163.491 57.4268C163.474 57.1286 163.338 56.8495 163.115 56.6506C162.892 56.4517 162.599 56.3492 162.301 56.3656L140.097 57.5979C139.799 57.6156 139.519 57.7507 139.32 57.9736C139.121 58.1965 139.019 58.4892 139.035 58.7875L139.592 68.7833C139.599 68.9313 139.636 69.0764 139.701 69.2101C139.765 69.3438 139.855 69.4634 139.965 69.5621C140.076 69.6608 140.205 69.7366 140.346 69.7851C140.486 69.8335 140.634 69.8537 140.783 69.8445L162.977 68.6121C163.126 68.6044 163.271 68.5676 163.406 68.5036C163.54 68.4396 163.66 68.3498 163.76 68.2393C163.859 68.1288 163.936 67.9998 163.985 67.8596C164.035 67.7195 164.056 67.5709 164.048 67.4225L163.491 57.4268ZM162.309 68.3554L141.074 69.5364C140.762 69.5527 140.456 69.4448 140.223 69.2363C139.99 69.0278 139.849 68.7357 139.832 68.4238L139.309 59.0614C139.293 58.7494 139.401 58.4437 139.609 58.2112C139.818 57.9786 140.111 57.8381 140.423 57.8204L161.632 56.6394C161.945 56.6231 162.251 56.731 162.483 56.9395C162.716 57.148 162.857 57.4401 162.874 57.752L163.397 67.1144C163.416 67.4227 163.312 67.726 163.108 67.9584C162.905 68.1907 162.617 68.3334 162.309 68.3554Z" fill="#B8C4F8"/>
<path d="M163.414 67.1144C163.423 67.2685 163.402 67.4228 163.352 67.5686C163.301 67.7144 163.222 67.8488 163.119 67.9641C163.017 68.0794 162.892 68.1733 162.753 68.2404C162.614 68.3076 162.463 68.3466 162.309 68.3553L141.074 69.5364C140.762 69.5527 140.456 69.4448 140.223 69.2363C139.99 69.0278 139.849 68.7357 139.832 68.4238L139.309 59.0614C139.293 58.7494 139.401 58.4437 139.609 58.2112C139.818 57.9786 140.111 57.8381 140.423 57.8204L161.632 56.6394C161.945 56.6231 162.251 56.731 162.483 56.9395C162.716 57.148 162.857 57.4401 162.874 57.752L163.414 67.1144Z" fill="#F9FBFF"/>
<path d="M139.647 66.4629L139.348 61.1054L139.596 61.0916C140.025 61.0677 140.446 61.2149 140.766 61.5009C141.086 61.7869 141.279 62.1882 141.303 62.6165L141.423 64.7698C141.447 65.1981 141.3 65.6183 141.013 65.9381C140.727 66.2578 140.325 66.4509 139.897 66.4747L139.649 66.4886L139.647 66.4629Z" fill="#B8C4F8"/>
<path d="M139.918 61.9664L140.117 65.5296C140.121 65.6004 140.181 65.6545 140.252 65.6506L140.295 65.6482C140.366 65.6443 140.42 65.5837 140.416 65.5129L140.217 61.9497C140.213 61.879 140.153 61.8248 140.082 61.8287L140.039 61.8311C139.968 61.835 139.914 61.8956 139.918 61.9664Z" fill="#EBEEFB"/>
<path d="M140.809 63.9366C140.931 63.9298 141.025 63.8171 141.018 63.685C141.01 63.5529 140.905 63.4513 140.782 63.4581C140.659 63.465 140.565 63.5776 140.573 63.7098C140.58 63.8419 140.686 63.9435 140.809 63.9366Z" fill="#EBEEFB"/>
<path d="M150.437 63.1192L150.223 63.1311L150.236 63.3619L150.449 63.35L150.437 63.1192Z" fill="#B8C4F8"/>
<path d="M151.55 60.114H151.336H151.122H150.908H150.479H150.265H150.042L150.137 61.7058H150.351H150.779H150.993H151.207H151.422H151.636L151.55 60.114ZM151.19 61.5004H150.976H150.762H150.548H150.334L150.274 60.3622H150.496H150.711H151.139H151.353L151.422 61.5004H151.19Z" fill="#B8C4F8"/>
<path d="M150.976 65.3857L151.19 65.3686L151.404 65.3601L151.37 64.6754L151.156 64.6925L150.942 64.7011L150.728 64.7182L150.762 65.3943L150.976 65.3857Z" fill="#B8C4F8"/>
<path d="M151.314 63.5227L151.1 63.5346L151.126 63.9874L151.339 63.9755L151.314 63.5227Z" fill="#B8C4F8"/>
<path d="M151.293 63.3147L151.507 63.3061L151.49 63.0751L151.276 63.0922L151.267 62.8611L151.482 62.8526L151.464 62.6215L151.25 62.6386L151.242 62.4075L151.028 62.4161L151.036 62.6472L150.822 62.6557L150.788 61.9796L150.574 61.9882L150.599 62.4418L150.385 62.4589L150.171 62.4674L150.179 62.6899L150.394 62.6814L150.419 63.135L150.633 63.1264L150.848 63.1093L150.839 62.8868L151.053 62.8782L151.062 63.1007L150.848 63.1093L150.865 63.3404L150.651 63.3489L150.676 63.811L150.462 63.8196L150.248 63.8282L150.257 64.0592L150.471 64.0421L150.685 64.0336L150.899 64.025L150.873 63.5714L151.087 63.5543L151.079 63.3318L151.293 63.3147Z" fill="#B8C4F8"/>
<path d="M151.235 61.9386L151.021 61.9505L151.034 62.1812L151.248 62.1693L151.235 61.9386Z" fill="#B8C4F8"/>
<path d="M150.925 60.6018L150.711 60.6104L150.496 60.6275L150.539 61.3036L150.753 61.295L150.968 61.2865L151.182 61.2693L151.139 60.5933L150.925 60.6018Z" fill="#B8C4F8"/>
<path d="M151.773 64.2047H151.559H151.344H151.13H150.916H150.488H150.274L150.359 65.7965H150.573H150.788H151.01H151.439H151.653H151.867L151.773 64.2047ZM151.207 65.5997H150.993H150.779H150.565L150.505 64.4615H150.719H150.933H151.147H151.362H151.576L151.636 65.5997H151.207Z" fill="#B8C4F8"/>
<path d="M151.762 63.7291L151.548 63.741L151.561 63.9717L151.775 63.9598L151.762 63.7291Z" fill="#B8C4F8"/>
<path d="M151.737 63.2777L151.523 63.2896L151.536 63.5203L151.749 63.5084L151.737 63.2777Z" fill="#B8C4F8"/>
<path d="M151.711 62.8177L151.498 62.8296L151.51 63.0603L151.724 63.0484L151.711 62.8177Z" fill="#B8C4F8"/>
<path d="M151.686 62.3662L151.472 62.3781L151.485 62.6089L151.699 62.5969L151.686 62.3662Z" fill="#B8C4F8"/>
<path d="M151.903 62.5846L151.689 62.5965L151.702 62.8272L151.916 62.8153L151.903 62.5846Z" fill="#B8C4F8"/>
<path d="M152.013 60.773L152.021 60.9955L151.807 61.0126L151.824 61.2351L152.038 61.2265L152.047 61.449L152.261 61.4405L152.278 61.663L152.492 61.6544L152.475 61.4319L152.689 61.4148L152.681 61.1923L152.467 61.2009L152.252 61.2094L152.235 60.9869L152.449 60.9698L152.664 60.9612L152.629 60.2766L152.843 60.268L152.826 60.0455L152.612 60.0541L152.398 60.0626L152.184 60.0798L152.201 60.3023L152.415 60.2937L152.441 60.7473L152.227 60.7558L152.201 60.3023L151.987 60.3194L151.97 60.0883L151.756 60.0969L151.798 60.7815L152.013 60.773Z" fill="#B8C4F8"/>
<path d="M152.629 64.1534L152.415 64.1619L152.424 64.393L152.21 64.4016L152.201 64.179L152.415 64.1619L152.407 63.9394L152.184 63.948L152.175 63.7255L152.39 63.7084L152.407 63.9394L152.621 63.9223L152.587 63.4687L152.809 63.4602L152.792 63.2291L152.578 63.2462L152.364 63.2548L152.372 63.4858L152.158 63.4944L151.944 63.5115L152.038 65.0947L152.252 65.0862L152.227 64.6326L152.441 64.6155L152.467 65.0691L152.681 65.0605L152.664 64.838L152.878 64.8209L152.869 64.5984L152.655 64.6069L152.629 64.1534Z" fill="#B8C4F8"/>
<path d="M152.706 65.5141L152.689 65.2916L152.475 65.3002L152.261 65.3087L152.278 65.5398L152.064 65.5484L152.073 65.7794L152.287 65.7709L152.501 65.7538L152.715 65.7452L152.929 65.7281L153.143 65.7195L153.357 65.711L153.572 65.6938L153.794 65.6853L154.008 65.6682L153.991 65.4457L153.777 65.4542L153.563 65.4713L153.546 65.2403L153.332 65.2574L153.349 65.4799L153.135 65.497L153.118 65.2659L152.903 65.2745L152.921 65.5056L152.706 65.5141Z" fill="#B8C4F8"/>
<path d="M152.912 65.0326L152.698 65.0445L152.711 65.2752L152.925 65.2633L152.912 65.0326Z" fill="#B8C4F8"/>
<path d="M152.84 63.8999L152.627 63.9118L152.639 64.1426L152.853 64.1307L152.84 63.8999Z" fill="#B8C4F8"/>
<path d="M152.981 62.767L152.766 62.7756L152.552 62.7927L152.544 62.5616L152.33 62.5787L152.312 62.3477L152.527 62.3391L152.501 61.8855L152.287 61.8941L152.304 62.1251L152.09 62.1337L152.073 61.9026L152.287 61.8941L152.278 61.663L152.064 61.6801L151.85 61.6887L151.858 61.9198L151.644 61.9283L151.43 61.9454L151.447 62.1679L151.661 62.1594L151.876 62.1423L151.884 62.3733L152.098 62.3648L152.124 62.8183L152.338 62.8012L152.355 63.0323L152.569 63.0152L152.784 63.0066L152.792 63.2291L153.006 63.2206L152.981 62.767Z" fill="#B8C4F8"/>
<path d="M152.914 61.3835L152.701 61.3954L152.713 61.6261L152.927 61.6142L152.914 61.3835Z" fill="#B8C4F8"/>
<path d="M153.241 63.4247L153.028 63.4366L153.04 63.6673L153.254 63.6554L153.241 63.4247Z" fill="#B8C4F8"/>
<path d="M153.066 60.482L153.092 60.9356L152.878 60.9527L152.895 61.1752L153.109 61.1666L153.323 61.1495L153.306 60.927L153.52 60.9184L153.512 60.6874L153.726 60.6788L153.94 60.6617L153.914 60.2081L153.7 60.2253L153.486 60.2338L153.495 60.4563L153.28 60.4734L153.272 60.2424L153.486 60.2338L153.477 60.0027L153.263 60.0199L153.049 60.0284L153.058 60.2595L152.844 60.268L152.852 60.4991L153.066 60.482Z" fill="#B8C4F8"/>
<path d="M153.315 64.7953L153.323 65.0263L153.537 65.0178L153.752 65.0006L153.743 64.7781L153.529 64.7867L153.315 64.7953Z" fill="#B8C4F8"/>
<path d="M153.477 63.8795L153.46 63.6485L153.246 63.6656L153.263 63.8881L153.049 63.9052L153.058 64.1277L153.272 64.1191L153.28 64.3417L153.066 64.3588L153.058 64.1277L152.844 64.1448L152.869 64.5984L153.083 64.5813L153.101 64.8123L153.315 64.7952L153.298 64.5727L153.512 64.5642L153.726 64.547L153.717 64.3245L153.503 64.3331L153.486 64.102L153.7 64.0935L153.717 64.3245L153.931 64.3074L153.906 63.8538L153.692 63.871L153.477 63.8795Z" fill="#B8C4F8"/>
<path d="M154.848 61.5261V61.3036H154.634V60.85H154.42H154.206H153.923H153.709H153.495V61.0725H153.28V61.295H153.495V61.5261H153.28V61.4063H153.066V61.6288H152.852V61.8513H152.638V62.3048H152.852V62.7584H153.066V63.212H153.28H153.495V62.9895H153.28V62.3134H153.495H153.709V62.5359H154.137V62.2621H153.923V62.0396H154.137V62.2706H154.351H154.565L154.522 61.5945L154.848 61.5261ZM154.223 61.7914H154.009H153.794L153.752 61.1067H153.966H154.18H154.394L154.437 61.7914H154.223Z" fill="#B8C4F8"/>
<path d="M153.952 64.5132L153.739 64.5251L153.751 64.7558L153.965 64.7439L153.952 64.5132Z" fill="#B8C4F8"/>
<path d="M153.839 62.4776L153.625 62.4895L153.638 62.7202L153.852 62.7083L153.839 62.4776Z" fill="#B8C4F8"/>
<path d="M154.951 63.349H154.78V63.1179H154.565H154.351V62.8954H154.137V62.6643H153.923V63.1179H153.709V63.349H153.495V63.58H153.709H153.923V63.349H154.137V63.58H153.923V63.8111H154.137H154.351H154.565H154.994L154.951 63.349ZM154.326 63.6057V63.3832H154.54V63.6142L154.326 63.6057Z" fill="#B8C4F8"/>
<path d="M155.636 63.9737H155.422H155.208H154.994H154.779H154.351H154.137L154.223 65.5655H154.437H154.651H154.865H155.293H155.508H155.722L155.636 63.9737ZM155.071 65.3686H154.857H154.642H154.42L154.36 64.2304H154.574H155.002H155.216H155.43L155.499 65.3686H155.071Z" fill="#B8C4F8"/>
<path d="M154.202 61.3121L153.988 61.3241L154.001 61.5548L154.215 61.5429L154.202 61.3121Z" fill="#B8C4F8"/>
<path d="M154.126 59.9578L153.912 59.9697L153.925 60.2004L154.139 60.1885L154.126 59.9578Z" fill="#B8C4F8"/>
<path d="M154.471 62.4589L154.257 62.4675L154.283 62.921L154.497 62.9125L154.711 62.8954L154.694 62.6728L154.48 62.6814L154.471 62.4589Z" fill="#B8C4F8"/>
<path d="M154.36 60.4135L154.574 60.3964L154.788 60.3879L154.822 61.0725L155.036 61.0554L155.054 61.2865L155.268 61.2693L155.242 60.8158L155.028 60.8329L155.011 60.6018L155.225 60.5933L155.199 60.1397L155.413 60.1226L155.405 59.9001L155.191 59.9086L154.976 59.9257L154.762 59.9343L154.548 59.9428L154.334 59.96L154.343 60.1825L154.128 60.1996L154.146 60.4221L154.36 60.4135Z" fill="#B8C4F8"/>
<path d="M154.908 62.6557L154.925 62.8868L155.139 62.8782L155.114 62.4246L154.899 62.4332L154.891 62.2021L154.668 62.2193L154.694 62.6728L154.908 62.6557Z" fill="#B8C4F8"/>
<path d="M155.011 64.4786L154.797 64.4872L154.582 64.5043L154.625 65.1804L154.839 65.1718L155.054 65.1547L155.268 65.1461L155.225 64.4615L155.011 64.4786Z" fill="#B8C4F8"/>
<path d="M155.076 61.4944L154.862 61.5063L154.875 61.737L155.089 61.7251L155.076 61.4944Z" fill="#B8C4F8"/>
<path d="M155.616 63.5152L155.402 63.5271L155.415 63.7578L155.629 63.7459L155.616 63.5152Z" fill="#B8C4F8"/>
<path d="M155.353 62.8611L155.568 62.8525L155.533 62.1679L155.319 62.185L155.105 62.1936L155.114 62.4247L155.328 62.4075L155.353 62.8611Z" fill="#B8C4F8"/>
<path d="M155.511 61.4701L155.297 61.482L155.322 61.9349L155.536 61.923L155.511 61.4701Z" fill="#B8C4F8"/>
<path d="M155.452 60.5591L155.238 60.571L155.251 60.8018L155.464 60.7899L155.452 60.5591Z" fill="#B8C4F8"/>
<path d="M150.711 59.2924L150.719 59.4465L149.331 59.5149L149.409 60.9185L149.263 60.927L149.177 59.378L150.711 59.2924Z" fill="#B8C4F8"/>
<path d="M156.176 58.9843L156.261 60.5333L156.116 60.5419L156.039 59.1469L154.788 59.2154L154.78 59.0613L156.176 58.9843Z" fill="#B8C4F8"/>
<path d="M151.139 66.9262L151.13 66.7721L149.734 66.8577L149.657 65.4542L149.52 65.4628L149.606 67.0118L151.139 66.9262Z" fill="#B8C4F8"/>
<path d="M156.596 66.6266L156.51 65.0776L156.364 65.0862L156.441 66.4812L155.199 66.5496L155.208 66.7037L156.596 66.6266Z" fill="#B8C4F8"/>
<path d="M131.146 99.7376C133.932 99.7376 136.191 97.4808 136.191 94.6969C136.191 91.913 133.932 89.6562 131.146 89.6562C128.359 89.6562 126.1 91.913 126.1 94.6969C126.1 97.4808 128.359 99.7376 131.146 99.7376Z" fill="#849BF6"/>
<path d="M131.146 98.8903C133.464 98.8903 135.343 97.0129 135.343 94.6969C135.343 92.381 133.464 90.5035 131.146 90.5035C128.827 90.5035 126.948 92.381 126.948 94.6969C126.948 97.0129 128.827 98.8903 131.146 98.8903Z" fill="#B8C4F8"/>
<path fill-rule="evenodd" clip-rule="evenodd" d="M133.741 94.2862C133.102 94.0064 132.409 93.8691 131.711 93.8839V93.2164H133.244V92.2151H129.081V93.2335H130.606V93.9267C129.364 93.9781 128.43 94.2262 128.43 94.5172C128.43 94.8082 128.978 94.9451 129.801 95.0478C130.068 95.0856 130.336 95.1084 130.606 95.1163V97.2558H131.711V95.1163C132.208 95.102 132.701 95.0361 133.184 94.9194C133.621 94.8167 133.887 94.6798 133.887 94.5172C133.887 94.3546 133.827 94.3461 133.741 94.2862ZM133.621 94.4231C133.621 94.483 133.553 94.5514 133.433 94.6028C132.882 94.795 132.303 94.8933 131.72 94.8938H130.615C130.366 94.8938 130.126 94.8938 129.912 94.8424C129.698 94.7911 129.432 94.7654 129.244 94.7226C128.901 94.6456 128.696 94.5343 128.696 94.4231C128.696 94.3118 129.552 94.0037 130.615 93.9609V94.7055H131.18C131.523 94.7055 131.694 94.7055 131.72 94.7055V93.9267C132.79 93.9267 133.596 94.1578 133.638 94.3717L133.621 94.4231Z" fill="#849BF6"/>
<path d="M123.376 88.0559C126.163 88.0559 128.422 85.7991 128.422 83.0152C128.422 80.2313 126.163 77.9745 123.376 77.9745C120.59 77.9745 118.331 80.2313 118.331 83.0152C118.331 85.7991 120.59 88.0559 123.376 88.0559Z" fill="#849BF6"/>
<path d="M123.376 87.2086C125.694 87.2086 127.574 85.3312 127.574 83.0152C127.574 80.6993 125.694 78.8218 123.376 78.8218C121.058 78.8218 119.179 80.6993 119.179 83.0152C119.179 85.3312 121.058 87.2086 123.376 87.2086Z" fill="#B8C4F8"/>
<path fill-rule="evenodd" clip-rule="evenodd" d="M123.941 82.1937V81.5261H125.475V80.5078H121.303V81.5261H122.836V82.1937C121.594 82.2536 120.661 82.4932 120.661 82.7927C120.661 83.0923 121.594 83.3319 122.836 83.3918V85.5313H123.941V83.3918C125.184 83.3319 126.117 83.0837 126.117 82.7927C126.117 82.5018 125.175 82.2536 123.941 82.1937ZM123.941 83.2035C123.759 83.2152 123.576 83.2152 123.393 83.2035C123.111 83.2035 122.905 83.2035 122.836 83.2035C122.376 83.1915 121.917 83.1371 121.466 83.0409C121.123 82.9553 120.918 82.8526 120.918 82.7414C120.918 82.6301 121.774 82.322 122.836 82.2707V83.0152C122.905 83.0152 123.111 83.0152 123.402 83.0152C123.582 83.0261 123.762 83.0261 123.941 83.0152V82.2707C125.038 82.322 125.852 82.5103 125.852 82.7414C125.852 82.9724 125.029 83.1607 123.941 83.2035Z" fill="#849BF6"/>
<path d="M138.487 71.9412C141.619 71.9412 144.158 69.4047 144.158 66.2758C144.158 63.1469 141.619 60.6104 138.487 60.6104C135.355 60.6104 132.816 63.1469 132.816 66.2758C132.816 69.4047 135.355 71.9412 138.487 71.9412Z" fill="#B8C4F8"/>
<path d="M138.487 71.0255C141.112 71.0255 143.241 68.8989 143.241 66.2758C143.241 63.6526 141.112 61.5261 138.487 61.5261C135.861 61.5261 133.733 63.6526 133.733 66.2758C133.733 68.8989 135.861 71.0255 138.487 71.0255Z" fill="#849BF6"/>
<path d="M138.487 70.2467C140.682 70.2467 142.461 68.4688 142.461 66.2758C142.461 64.0827 140.682 62.3049 138.487 62.3049C136.292 62.3049 134.512 64.0827 134.512 66.2758C134.512 68.4688 136.292 70.2467 138.487 70.2467Z" fill="#B8C4F8"/>
<path d="M139.737 66.7208C139.723 66.6325 139.69 66.5482 139.642 66.4731C139.593 66.398 139.529 66.3337 139.455 66.2843C139.369 66.222 139.269 66.181 139.164 66.1645C139.266 66.1405 139.36 66.0904 139.438 66.019C139.524 65.9503 139.59 65.8583 139.626 65.7537C139.638 65.6887 139.638 65.6219 139.626 65.5569C139.629 65.4648 139.608 65.3736 139.566 65.2916C139.523 65.1861 139.448 65.0965 139.352 65.0349C139.207 64.9339 139.039 64.8694 138.864 64.8466V64.4786H138.264V64.8295H137.999V64.4786H137.399V64.8295H137.193V67.7049H137.33V68.1157H137.93V67.7049H138.264V68.1157H138.864V67.6964C139.092 67.6769 139.31 67.5906 139.489 67.4482C139.56 67.3878 139.617 67.3131 139.657 67.229C139.697 67.145 139.718 67.0534 139.72 66.9604C139.735 66.8814 139.741 66.801 139.737 66.7208ZM137.973 65.3943H138.555C138.761 65.3943 138.889 65.497 138.889 65.6681C138.889 65.8393 138.761 65.9591 138.555 65.9591H137.973V65.3943ZM138.555 67.1059H137.973V66.5411H138.555C138.812 66.5411 138.975 66.6523 138.975 66.832C138.975 67.0117 138.812 67.1059 138.555 67.1059Z" fill="#849BF6"/>
<path d="M136.422 83.8625C139.322 83.8625 141.673 81.5137 141.673 78.6164C141.673 75.7191 139.322 73.3704 136.422 73.3704C133.522 73.3704 131.171 75.7191 131.171 78.6164C131.171 81.5137 133.522 83.8625 136.422 83.8625Z" fill="#B8C4F8"/>
<path d="M136.422 83.0153C138.854 83.0153 140.825 81.0458 140.825 78.6164C140.825 76.187 138.854 74.2176 136.422 74.2176C133.991 74.2176 132.019 76.187 132.019 78.6164C132.019 81.0458 133.991 83.0153 136.422 83.0153Z" fill="#849BF6"/>
<path d="M136.422 82.2964C138.457 82.2964 140.106 80.6488 140.106 78.6164C140.106 76.584 138.457 74.9365 136.422 74.9365C134.388 74.9365 132.739 76.584 132.739 78.6164C132.739 80.6488 134.388 82.2964 136.422 82.2964Z" fill="#B8C4F8"/>
<path d="M137.056 78.5223C137.188 78.4929 137.306 78.419 137.391 78.3131C137.475 78.2072 137.52 78.0756 137.519 77.9403C137.519 77.598 137.245 77.3584 136.799 77.2899V76.9476H136.242V77.2728H136.003V76.9476H135.446V77.2728H135.257V79.9343H135.377V80.3109H135.934V79.9343H136.242V80.3109H136.791V79.9258C137.287 79.8659 137.596 79.592 137.596 79.1983C137.601 79.04 137.549 78.8851 137.45 78.7612C137.352 78.6373 137.212 78.5527 137.056 78.5223ZM135.951 77.812H136.491C136.679 77.812 136.799 77.9061 136.799 78.0687C136.799 78.2313 136.679 78.334 136.491 78.334H135.934L135.951 77.812ZM136.491 79.3952H135.934V78.8389H136.474C136.714 78.8389 136.868 78.9416 136.868 79.1042C136.868 79.2668 136.731 79.3781 136.491 79.3781V79.3952Z" fill="#849BF6"/>
<path d="M146.025 90.5035C149.091 90.5035 151.576 88.0206 151.576 84.9579C151.576 81.8951 149.091 79.4123 146.025 79.4123C142.959 79.4123 140.474 81.8951 140.474 84.9579C140.474 88.0206 142.959 90.5035 146.025 90.5035Z" fill="#B8C4F8"/>
<path d="M146.025 89.6049C148.594 89.6049 150.676 87.5244 150.676 84.9579C150.676 82.3914 148.594 80.3109 146.025 80.3109C143.456 80.3109 141.374 82.3914 141.374 84.9579C141.374 87.5244 143.456 89.6049 146.025 89.6049Z" fill="#849BF6"/>
<path d="M146.025 88.8432C148.173 88.8432 149.914 87.1037 149.914 84.9579C149.914 82.8121 148.173 81.0726 146.025 81.0726C143.877 81.0726 142.136 82.8121 142.136 84.9579C142.136 87.1037 143.877 88.8432 146.025 88.8432Z" fill="#B8C4F8"/>
<path d="M146.685 84.8467C146.824 84.8171 146.948 84.7405 147.037 84.6297C147.126 84.519 147.174 84.381 147.173 84.239C147.173 83.871 146.89 83.6143 146.419 83.5458V83.1864H145.828V83.5202H145.571V83.1864H144.98V83.5202H144.783V86.3443H144.911V86.738H145.502V86.3443H145.828V86.738H146.419V86.3272C146.942 86.2673 147.276 85.9849 147.276 85.557C147.28 85.3872 147.222 85.2216 147.114 85.091C147.005 84.9603 146.852 84.8735 146.685 84.8467ZM145.52 84.1021H146.085C146.29 84.1021 146.419 84.1963 146.419 84.3674C146.419 84.5386 146.29 84.6498 146.085 84.6498H145.52V84.1021ZM146.085 85.7709H145.52V85.1804H146.085C146.342 85.1804 146.505 85.2917 146.505 85.4628C146.505 85.634 146.342 85.7709 146.085 85.7709Z" fill="#849BF6"/>
<path d="M95.6735 180.799L92.4783 163.906L92.247 160.482V160.277V160.166L92.0929 148.775L92.3241 134.269V133.627V133.217L92.3841 131.094L103.76 147.842L93.3606 126.961L90.7908 121.569C90.7063 121.402 90.5692 121.267 90.4006 121.185C90.232 121.103 90.0412 121.079 89.8574 121.116C89.6736 121.153 89.5071 121.249 89.3832 121.39C89.2594 121.53 89.1851 121.707 89.1718 121.894L88.5379 133.687C87.6877 149.484 89.9521 165.293 95.2023 180.217L95.4165 180.816L95.6735 180.799Z" fill="#5660F3"/>
</svg>
