<svg width="166" height="193" viewBox="0 0 166 193" fill="none" xmlns="http://www.w3.org/2000/svg">
<path d="M69.9572 30.8321C69.9572 30.8321 125.42 22.4669 158.395 51.4868C158.395 51.4868 177.427 68.5552 155.277 92.1767C155.277 92.1767 135.1 109.902 122.302 115.15C122.302 115.15 108.021 123.844 100.313 139.758C100.313 139.758 88.9892 163.389 55.1879 160.6C55.1879 160.6 9.73459 152.226 19.7435 96.2795C19.7435 96.2982 20.4289 38.3804 69.9572 30.8321Z" fill="#F4F4F9"/>
<path d="M138.424 10.6373C138.424 10.6373 139.362 12.9563 144.461 12.9563C144.461 12.9563 149.155 12.5526 150.207 18.9462C150.207 18.9462 151.146 26.0064 159.155 29.1985C160.298 29.8743 161.212 30.8763 161.781 32.0758C162.35 33.2754 162.547 34.6176 162.347 35.93C162.347 35.93 162.019 38.3898 158.498 40.8121C156.848 42.3464 155.677 44.3257 155.127 46.5109C154.934 47.2721 154.591 47.9868 154.117 48.6125C153.643 49.2383 153.047 49.7624 152.367 50.1536H143.231L132.386 19.2372L129.494 10.9378L138.424 10.6373Z" fill="#041C39"/>
<path d="M117.852 15.0687C117.852 15.0687 120.481 24.8046 128.18 23.7062C128.18 23.7062 131.673 23.4902 133.1 16.9276C133.1 16.9276 135.447 17.4159 136.161 15.341C136.161 15.341 137.306 12.5244 134.283 12.055L117.87 8.29961C117.87 8.29961 117.035 12.8906 117.852 15.0687Z" fill="#DAE0FA"/>
<path d="M118.734 9.70789C118.734 9.70789 124.64 17.3595 134.264 12.055L138.424 10.6373C138.424 10.6373 135.41 0.460188 127.156 0.000150129C126.727 -0.00415565 126.302 0.0842041 125.91 0.259188C125.518 0.434173 125.168 0.691666 124.884 1.01411C123.959 1.28974 122.968 1.25012 122.067 0.901455C122.067 0.901455 117.138 -0.478656 114.002 2.61956C114.002 2.61956 110.584 5.33283 113.476 10.6373C114.71 12.4605 116.225 14.0766 117.964 15.4255C118.035 13.4992 118.293 11.5844 118.734 9.70789Z" fill="#041C39"/>
<path d="M128.8 23.5372L124.884 24.476C122.149 25.7357 119.907 27.8648 118.509 30.5316L107.298 46.8395L103.852 52.2567L110.913 57.0167L117.485 51.3835C119.807 49.4251 121.812 47.1196 123.429 44.5487C124.396 47.2772 126.052 49.7093 128.236 51.6089C128.396 53.391 128.453 55.181 128.405 56.9697C128.405 56.9697 128.236 66.3582 128.349 71.0525C128.349 71.0525 134.743 69.4658 139.616 68.48C139.616 68.48 150.611 67.9824 152.47 66.837C152.47 66.837 153.014 65.0908 151.212 55.2422C151.212 55.2422 152.554 54.754 152.357 50.1349C152.357 50.1349 153.108 34.7189 150.076 27.0485C150.076 27.0485 147.982 18.0261 143.306 18.5237C140.317 18.8646 137.436 19.841 134.856 21.3872L128.8 23.5372Z" fill="#EBEEFB"/>
<path d="M140.893 41.3096C141.146 42.9526 141.832 48.1727 140.818 50.8202L128.405 57.2138V53.6931C128.405 53.6931 137.691 48.351 140.611 41.2815C140.613 41.263 140.619 41.245 140.627 41.2287C140.636 41.2123 140.648 41.1978 140.663 41.186C140.677 41.1743 140.693 41.1654 140.711 41.1601C140.729 41.1547 140.748 41.1529 140.766 41.1547C140.785 41.1566 140.803 41.1621 140.819 41.1708C140.835 41.1796 140.85 41.1916 140.862 41.2059C140.873 41.2203 140.882 41.2369 140.888 41.2547C140.893 41.2725 140.895 41.2912 140.893 41.3096Z" fill="#DAE0FA"/>
<path d="M133.1 16.9276C133.429 18.5159 134.04 20.0325 134.903 21.406C135.451 23.0395 135.465 24.8049 134.943 26.4471C134.422 28.0893 133.392 29.523 132.001 30.541C131.836 30.5668 131.667 30.5565 131.507 30.5107C131.346 30.465 131.197 30.3849 131.07 30.276C130.944 30.1671 130.842 30.032 130.773 29.88C130.703 29.728 130.667 29.5627 130.668 29.3956C130.668 29.3956 130.856 23.5747 129.532 23.1898C131.295 21.4864 132.534 19.3131 133.1 16.9276Z" fill="#C9D3F9"/>
<path d="M111.814 40.2769C111.814 40.2769 115.645 39.3381 119.617 43.4315C119.658 43.4782 119.71 43.5142 119.768 43.5364C119.827 43.5586 119.889 43.5663 119.951 43.5589C120.013 43.5515 120.072 43.5292 120.124 43.494C120.175 43.4587 120.217 43.4115 120.246 43.3563L122.922 38.4274C122.922 38.4025 122.932 38.3786 122.949 38.361C122.967 38.3434 122.991 38.3335 123.016 38.3335C123.041 38.3335 123.065 38.3434 123.082 38.361C123.1 38.3786 123.11 38.4025 123.11 38.4274C123.101 40.4756 123.211 42.5226 123.438 44.5581C121.788 47.1045 119.788 49.4055 117.495 51.3929L110.922 57.026L103.862 52.266L111.814 40.2769Z" fill="#DAE0FA"/>
<path d="M107.035 70.2169H110.115C111.016 70.0301 111.899 69.763 112.753 69.4189L113.063 69.1936L111.974 69.4846C110.815 69.7112 109.631 69.7869 108.453 69.7099L105.636 69.8883L106.2 70.0573L107.035 70.2169Z" fill="#728CFC"/>
<path d="M141.062 145.738L148.489 149.494C148.489 149.494 149.428 149.738 148.489 152.733L145.447 160.065C145.447 160.065 143.109 167.858 140.161 169.989C140.161 169.989 138.583 171.726 136.79 171.331C136.601 171.284 136.433 171.174 136.315 171.018C136.197 170.863 136.136 170.672 136.142 170.477L136.264 151.493L141.062 145.738Z" fill="#EBEEFB"/>
<path d="M150.292 129.149C152.935 132.793 155.269 136.653 157.268 140.687C157.268 140.687 159.559 145.081 160.836 145.119C160.836 145.119 162.516 145.428 163.38 142.546C163.702 141.427 163.791 140.255 163.643 139.101C163.211 135.289 161.822 124.182 160.131 120.633C160.131 120.633 157.7 119.77 152.62 121.291L150.292 129.149Z" fill="#EBEEFB"/>
<path d="M128.405 71.0713C128.405 71.0713 119.748 79.4552 116.753 94.4017C116.753 94.4017 115.974 112.165 130.837 122.079C130.837 122.079 144.789 128.107 150.32 129.149C150.32 129.149 153.024 126.802 152.629 120.84C152.629 120.84 140.639 108.09 132.433 104.541L133.522 102.842C133.522 102.842 149.606 77.1363 146.376 71.5595C146.348 71.5595 142.489 70.3014 128.405 71.0713Z" fill="#5660F3"/>
<path d="M151.606 67.1938C152.867 71.568 152.923 76.2018 151.766 80.6047C150.609 85.0076 148.283 89.0158 145.034 92.2048C145.034 92.2048 138.63 99.0678 132.396 104.541L124.959 111.864C124.864 111.957 124.788 112.068 124.736 112.191C124.685 112.313 124.658 112.445 124.658 112.578C124.658 112.711 124.685 112.843 124.736 112.965C124.788 113.088 124.864 113.199 124.959 113.291C124.959 113.291 129.109 117.77 133.597 127.731L141.259 145.231C140.284 147.796 138.535 149.995 136.255 151.522H135.513C126.889 142.709 119.418 132.838 113.279 122.145C113.279 122.145 108.237 113.695 111.289 105.903C111.289 105.903 120.931 84.2246 126.753 76.5636C127.557 75.499 128.072 74.2438 128.246 72.9208C128.322 72.2979 128.357 71.6706 128.349 71.0431L139.616 68.4707C139.616 68.4707 147.606 69.5222 151.606 67.1938Z" fill="#5165F3"/>
<path d="M128.405 71.0713C133.426 69.9697 138.523 69.254 143.653 68.9307C143.653 68.9307 149.559 69.034 152.526 66.8558C152.526 66.8558 152.958 63.5135 151.268 55.261C151.268 55.261 143.813 62.8375 128.255 65.7949L128.405 71.0713Z" fill="#DAE0FA"/>
<path d="M63.0467 193C61.9058 192.991 60.7738 192.798 59.6947 192.427H59.582L7.575 171.331C5.54118 170.476 3.77269 169.093 2.45221 167.325C1.13173 165.557 0.307134 163.469 0.0636061 161.276C-0.157702 158.974 0.200584 156.654 1.10581 154.526L22.0251 103.903C23.6024 100.288 28.6726 94.1107 36.6723 96.3921L36.8788 96.4672C37.1887 96.5893 44.6719 99.603 47.8643 93.6507L51.6857 85.8957L54.2208 81.3705L89.6182 97.162L84.8297 107.489C84.5199 108.362 82.642 114.258 88.6418 117.047C91.3265 118.381 93.4563 120.617 94.6579 123.363C95.8596 126.11 96.0565 129.191 95.2142 132.068L95.1297 132.294L73.065 185.865C71.8068 188.663 68.314 193 63.0467 193ZM60.9341 188.888C66.6334 190.766 69.544 184.625 69.6661 184.363L91.6463 130.961C92.2046 128.944 92.0499 126.797 91.2082 124.881C90.3666 122.965 88.8897 121.399 87.0268 120.445C79.5154 116.953 80.0224 109.536 81.3463 106.1L81.3933 105.997L84.6138 99.0209L55.8357 86.1398L55.0001 87.6326L51.2444 95.303C47.4042 102.504 39.3858 101.499 35.5737 99.941C28.8135 98.0633 25.6493 105.02 25.5179 105.321L4.59861 155.934C3.92995 157.476 3.66187 159.162 3.8193 160.835C3.98445 162.346 4.54541 163.786 5.44553 165.011C6.34566 166.236 7.55308 167.202 8.94584 167.811L60.9341 188.888Z" fill="#5165F3"/>
<path d="M97.4019 79.2393C108.592 79.2393 117.664 70.1684 117.664 58.9788C117.664 47.7893 108.592 38.7184 97.4019 38.7184C86.2115 38.7184 77.1399 47.7893 77.1399 58.9788C77.1399 70.1684 86.2115 79.2393 97.4019 79.2393Z" fill="#B8C4F8"/>
<path d="M97.4019 75.9533C106.777 75.9533 114.378 68.3536 114.378 58.9788C114.378 49.6041 106.777 42.0044 97.4019 42.0044C88.0265 42.0044 80.4261 49.6041 80.4261 58.9788C80.4261 68.3536 88.0265 75.9533 97.4019 75.9533Z" fill="#849BF6"/>
<path d="M97.402 73.1743C105.243 73.1743 111.599 66.8188 111.599 58.9789C111.599 51.1389 105.243 44.7834 97.402 44.7834C89.5615 44.7834 83.2054 51.1389 83.2054 58.9789C83.2054 66.8188 89.5615 73.1743 97.402 73.1743Z" fill="#B8C4F8"/>
<path d="M120.255 62.0207H116.265C116.265 62.0207 113.082 62.2836 112.509 63.429C112.509 63.429 112.265 64.3679 113.166 64.4993H114.969C114.988 64.6439 114.968 64.791 114.91 64.9249C114.852 65.0588 114.759 65.1745 114.641 65.2598L110.725 67.8041L110.19 68.0294H105.186C105.065 68.0276 104.947 68.0584 104.843 68.1184C104.739 68.1785 104.653 68.2655 104.594 68.3704C104.536 68.4752 104.506 68.594 104.51 68.7141C104.513 68.8342 104.549 68.9512 104.613 69.0527C104.613 69.0527 104.904 69.7663 106.237 70.0573C106.979 71.0972 108.046 71.8603 109.27 72.2261H112.387L110.829 72.4514C110.736 72.5215 110.669 72.6203 110.638 72.7324C110.608 72.8445 110.615 72.9636 110.66 73.071C110.66 73.071 110.66 73.3996 112.124 73.5404H113.242C113.659 73.5432 114.064 73.4004 114.387 73.1367C115.739 71.9832 116.972 70.6968 118.068 69.2968C118.068 69.2968 121.232 66.5366 122.471 66.0484L120.255 62.0207Z" fill="#DAE0FA"/>
<path d="M128.405 57.2138L120.837 60.7815C120.648 60.8668 120.489 61.0077 120.382 61.1854C120.275 61.3632 120.224 61.5694 120.237 61.7766C120.237 62.5371 120.725 63.936 122.631 66.2456C122.672 66.2946 122.724 66.3336 122.782 66.3596C122.841 66.3857 122.905 66.398 122.969 66.3958L128.208 65.7949C128.208 65.7949 131.964 65.0908 134.311 64.3585L132.339 55.1953L128.405 57.2138Z" fill="#EBEEFB"/>
<path d="M95.9063 89.2266L53.3918 71.015L47.8311 83.9945L90.3456 102.206L95.9063 89.2266Z" fill="#849BF6"/>
<path d="M57.554 185.799C66.8672 185.799 74.4171 178.25 74.4171 168.937C74.4171 159.625 66.8672 152.075 57.554 152.075C48.2408 152.075 40.6909 159.625 40.6909 168.937C40.6909 178.25 48.2408 185.799 57.554 185.799Z" fill="#849BF6"/>
<path d="M57.554 182.992C65.3167 182.992 71.6097 176.699 71.6097 168.937C71.6097 161.175 65.3167 154.883 57.554 154.883C49.7912 154.883 43.4983 161.175 43.4983 168.937C43.4983 176.699 49.7912 182.992 57.554 182.992Z" fill="#B8C4F8"/>
<path fill-rule="evenodd" clip-rule="evenodd" d="M59.413 169.576C59.3097 169.576 58.7746 169.576 57.5352 169.576C56.5963 169.576 55.9108 169.576 55.6573 169.576C51.9861 169.407 49.2445 168.768 49.2445 168.008C49.2445 167.247 51.9861 166.599 55.6573 166.44V168.937C55.9014 168.937 56.5963 168.994 57.5352 168.994C58.6807 168.994 59.244 168.947 59.3473 168.937V166.44C63.0185 166.599 65.7508 167.238 65.7508 168.008C65.7508 168.778 63.0185 169.407 59.3473 169.566L59.413 169.576ZM59.413 166.177V163.943H64.5583V160.535H50.5965V163.943H55.7137V166.177C51.5542 166.365 48.4276 167.191 48.4276 168.177C48.4276 169.163 51.5542 169.989 55.7137 170.177V177.349H59.413V170.177C63.5631 169.989 66.6803 169.163 66.6803 168.177C66.6803 167.191 63.5631 166.374 59.413 166.177Z" fill="#849BF6"/>
<path d="M23.4898 172.045C32.803 172.045 40.3529 164.496 40.3529 155.183C40.3529 145.871 32.803 138.321 23.4898 138.321C14.1766 138.321 6.62671 145.871 6.62671 155.183C6.62671 164.496 14.1766 172.045 23.4898 172.045Z" fill="#849BF6"/>
<path d="M23.4898 169.238C31.2525 169.238 37.5455 162.945 37.5455 155.183C37.5455 147.421 31.2525 141.128 23.4898 141.128C15.727 141.128 9.43408 147.421 9.43408 155.183C9.43408 162.945 15.727 169.238 23.4898 169.238Z" fill="#B8C4F8"/>
<path fill-rule="evenodd" clip-rule="evenodd" d="M25.4334 154.958C25.3489 155.014 24.87 155.268 23.7903 155.775C22.9265 156.178 22.3068 156.441 22.0908 156.535C18.6919 157.943 15.9409 158.535 15.6122 157.84C15.2836 157.145 17.4901 155.408 20.7576 153.69L21.8185 155.953C22.0439 155.868 22.6824 155.615 23.5462 155.211C24.579 154.723 25.0766 154.441 25.1611 154.385L24.1001 152.122C27.4896 150.714 30.2407 150.132 30.5599 150.827C30.8792 151.522 28.6821 153.258 25.4334 154.958ZM23.9968 151.888L23.0579 149.869L27.6962 147.691L26.2503 144.612L13.6311 150.526L15.0864 153.615L19.7153 151.437L20.6543 153.465C16.9737 155.399 14.4949 157.474 14.908 158.366C15.3212 159.258 18.5135 158.676 22.3537 157.089L25.3958 163.567L28.7478 161.999L25.7057 155.512C29.3769 153.578 31.8556 151.503 31.4331 150.611C31.0106 149.719 27.837 150.301 24.0062 151.888H23.9968Z" fill="#849BF6"/>
<path d="M50.6247 151.512C59.9379 151.512 67.4878 143.963 67.4878 134.65C67.4878 125.338 59.9379 117.789 50.6247 117.789C41.3115 117.789 33.7616 125.338 33.7616 134.65C33.7616 143.963 41.3115 151.512 50.6247 151.512Z" fill="#849BF6"/>
<path d="M50.6247 148.705C58.3874 148.705 64.6804 142.412 64.6804 134.65C64.6804 126.888 58.3874 120.596 50.6247 120.596C42.8619 120.596 36.569 126.888 36.569 134.65C36.569 142.412 42.8619 148.705 50.6247 148.705Z" fill="#B8C4F8"/>
<path fill-rule="evenodd" clip-rule="evenodd" d="M51.8547 136.171C51.7702 136.124 51.2913 135.861 50.2867 135.232C49.4792 134.735 48.9252 134.35 48.728 134.209C45.7047 132.115 43.7236 130.116 44.1273 129.468C44.5311 128.82 47.1976 129.74 50.3993 131.562L49.0661 133.674C49.2632 133.815 49.8266 134.218 50.6247 134.725C51.5636 135.326 52.0988 135.589 52.1927 135.664L53.5259 133.552C56.5399 135.646 58.5116 137.645 58.1079 138.246C57.7042 138.847 55.047 137.974 51.8547 136.162V136.171ZM53.6668 133.298L54.8592 131.421L59.1877 134.143L60.9998 131.252L49.2069 123.835L47.3948 126.726L51.7232 129.449L50.5308 131.327C46.9159 129.28 43.8269 128.313 43.3011 129.149C42.7753 129.984 44.9817 132.341 48.3994 134.716L44.5874 140.781L47.714 142.753L51.5354 136.688C55.1503 138.734 58.23 139.701 58.7558 138.866C59.2816 138.03 57.0751 135.674 53.6668 133.298Z" fill="#849BF6"/>
<path opacity="0.3" d="M87.9939 149.813L6.61731 141.025L12.2509 127.459L94.6227 133.627L87.9939 149.813Z" fill="#EBEEFB"/>
<path opacity="0.3" d="M80.9238 166.74L1.18091 154.394L5.65958 143.626L86.9893 152.179L80.9238 166.74Z" fill="#EBEEFB"/>
<path d="M99.815 58.5658C100.32 58.4489 100.77 58.1644 101.093 57.7585C101.415 57.3527 101.59 56.8495 101.59 56.3313C101.59 54.9981 100.547 54.0687 98.8291 53.8058V52.482H96.6884V53.7307H95.7495V52.482H93.6087V53.7307H92.8857V64.058H93.3552V65.5133H95.496V64.058H96.6978V65.5133H98.8385V64.0111C100.716 63.7764 101.937 62.7343 101.937 61.1945C101.966 60.5727 101.766 59.9616 101.375 59.4772C100.984 58.9927 100.429 58.6684 99.815 58.5658ZM95.5429 55.8525H97.5991C98.3503 55.8525 98.8104 56.1998 98.8104 56.7913C98.8104 57.3828 98.3503 57.8241 97.5991 57.8241H95.5429V55.8525ZM97.5991 61.9644H95.5429V59.805H97.5991C98.5381 59.805 99.1296 60.1994 99.1296 60.8472C99.1296 61.495 98.5662 61.9456 97.6179 61.9456L97.5991 61.9644Z" fill="#849BF6"/>
<path d="M121.019 18.1276C121.328 18.0377 121.452 17.533 121.297 17.0003C121.142 16.4676 120.766 16.1087 120.457 16.1986C120.149 16.2885 120.024 16.7932 120.179 17.3259C120.335 17.8585 120.711 18.2175 121.019 18.1276Z" fill="#041C39"/>
<path d="M125.573 16.6685C125.882 16.5786 126.006 16.0739 125.851 15.5412C125.696 15.0085 125.32 14.6496 125.011 14.7395C124.703 14.8294 124.578 15.3341 124.733 15.8668C124.889 16.3995 125.265 16.7584 125.573 16.6685Z" fill="#041C39"/>
<path d="M125.588 21.2745C126.126 21.1046 126.622 20.823 127.044 20.4483C127.454 20.0592 127.775 19.5849 127.983 19.0588C127.786 19.5907 127.464 20.0673 127.044 20.4483C126.622 20.8283 126.122 21.1104 125.579 21.2745H125.588Z" fill="#041C39" stroke="#041C39" stroke-width="0.1" stroke-linejoin="round"/>
</svg>
