<svg width="184" height="118" viewBox="0 0 184 118" fill="none" xmlns="http://www.w3.org/2000/svg">
<path d="M117.001 43.4924C113.757 48.8244 108.858 52.9488 103.052 55.2368C97.2461 57.5249 90.8514 57.851 84.8429 56.1656C78.8344 54.4802 73.5416 50.8756 69.7716 45.9014C66.0015 40.9273 63.9609 34.8563 63.9609 28.6142C63.9609 22.3721 66.0015 16.3011 69.7716 11.327C73.5416 6.35278 78.8344 2.74822 84.8429 1.06279C90.8514 -0.622636 97.2461 -0.296465 103.052 1.99158C108.858 4.27962 113.757 8.40402 117.001 13.736C114.753 14.3672 112.676 15.4994 110.927 17.0478C109.178 18.5962 107.802 20.5206 106.902 22.6767C105.519 19.3741 103.036 16.6523 99.8743 14.9737C96.7126 13.2951 93.0674 12.7633 89.5582 13.4686C86.0489 14.174 82.892 16.073 80.6239 18.8429C78.3558 21.6129 77.1165 25.0829 77.1165 28.6634C77.1165 32.2439 78.3558 35.714 80.6239 38.4839C82.892 41.2539 86.0489 43.1529 89.5582 43.8583C93.0674 44.5636 96.7126 44.0318 99.8743 42.3532C103.036 40.6746 105.519 37.9528 106.902 34.6502C107.816 36.7864 109.198 38.6899 110.946 40.2204C112.694 41.7508 114.764 42.869 117.001 43.4924Z" fill="white"/>
<path d="M92.6282 36.0084C96.7382 36.0084 100.07 32.6756 100.07 28.5644C100.07 24.4531 96.7382 21.1203 92.6282 21.1203C88.5182 21.1203 85.1864 24.4531 85.1864 28.5644C85.1864 32.6756 88.5182 36.0084 92.6282 36.0084Z" fill="white"/>
<path d="M97.491 22.9528C97.491 22.9528 105.366 34.0795 122.041 22.9528V34.1582C122.041 34.1582 109.362 24.3117 97.491 34.1582V22.9528Z" fill="white"/>
<path d="M0 90.3427C0 79.1373 6.3787 72.3628 16.4389 72.3628C24.8061 72.3628 31.1454 77.6603 31.6966 85.4391H24.6289C24.3805 83.4574 23.405 81.6386 21.8916 80.3359C20.3782 79.0331 18.4349 78.3392 16.4389 78.3889C10.9462 78.3889 7.42213 82.9971 7.42213 90.3033C7.42213 97.6095 10.9068 102.356 16.4586 102.356C18.4023 102.457 20.3148 101.835 21.8272 100.61C23.3396 99.3843 24.3447 97.642 24.6486 95.7189H31.736C30.9091 103.419 24.9636 108.263 16.4389 108.263C6.33933 108.263 0 101.548 0 90.3427Z" fill="white"/>
<path d="M34.6908 94.7938C34.6908 86.4242 39.7504 81.3631 47.4679 81.3631C55.1853 81.3631 60.2449 86.4045 60.2449 94.7938C60.2449 103.183 55.264 108.264 47.4679 108.264C39.6717 108.264 34.6908 103.262 34.6908 94.7938ZM53.0984 94.7938C53.0984 89.6736 50.8934 86.6999 47.4679 86.6999C44.0423 86.6999 41.8176 89.6736 41.8176 94.7938C41.8176 99.914 44.0029 102.888 47.4679 102.888C50.9328 102.888 53.1575 99.9928 53.1575 94.8135L53.0984 94.7938Z" fill="white"/>
<path d="M63.7479 75.4351C63.7205 74.6859 63.9174 73.9455 64.3136 73.3091C64.7097 72.6727 65.2869 72.1692 65.9711 71.8633C66.6554 71.5573 67.4154 71.4629 68.1537 71.5921C68.8919 71.7213 69.5747 72.0682 70.1145 72.5883C70.6543 73.1084 71.0263 73.778 71.1829 74.5112C71.3396 75.2443 71.2736 76.0076 70.9935 76.703C70.7134 77.3983 70.2319 77.9941 69.6109 78.4138C68.9899 78.8336 68.2577 79.0581 67.5082 79.0586C67.0217 79.0744 66.537 78.9925 66.0827 78.8177C65.6284 78.6429 65.2137 78.3789 64.8632 78.0411C64.5126 77.7033 64.2333 77.2986 64.0418 76.851C63.8502 76.4034 63.7503 75.9219 63.7479 75.4351ZM64.0038 81.9141H71.0322V107.732H64.0038V81.9141Z" fill="white"/>
<path d="M75.6967 81.914H82.4888V86.601H82.6857C83.3322 85.017 84.4583 83.6753 85.906 82.7641C87.3536 81.8529 89.0501 81.4179 90.7575 81.5202C96.4865 81.5202 99.7152 85.1437 99.7152 91.1895V107.83H92.6278V92.509C92.6278 89.1414 91.0331 87.2115 87.8831 87.2115C87.1535 87.1957 86.4289 87.3361 85.758 87.6234C85.087 87.9107 84.4853 88.3382 83.9931 88.8772C83.5008 89.4162 83.1295 90.0542 82.904 90.7485C82.6785 91.4428 82.6041 92.1774 82.6857 92.9028V107.732H75.6967V81.914Z" fill="white"/>
<path d="M118.855 72.9729C120.442 72.875 122.033 73.1117 123.523 73.6677C125.013 74.2237 126.37 75.0865 127.506 76.2004C128.642 77.3142 129.531 78.6543 130.116 80.1338C130.702 81.6132 130.97 83.1991 130.903 84.7888C130.903 91.9178 125.824 96.6047 118.5 96.6047H112.003V107.574H104.719V72.9729H118.855ZM112.003 91.0906H116.906C121.079 91.0906 123.501 88.8653 123.501 84.8873C123.501 80.9093 121.099 78.7233 116.925 78.7233H112.003V91.0906Z" fill="white"/>
<path d="M131.905 100.387C131.905 95.68 135.508 92.9623 141.946 92.5094L148.443 92.1155V90.4022C148.443 87.9997 146.749 86.6014 144.111 86.6014C143.079 86.4623 142.032 86.7145 141.175 87.3085C140.319 87.9025 139.716 88.7953 139.485 89.8114H133.067C133.342 84.7897 137.595 81.3631 144.446 81.3631C151.297 81.3631 155.373 84.77 155.373 89.969V107.693H148.58V103.754H148.443C147.633 105.113 146.478 106.232 145.094 106.996C143.71 107.761 142.148 108.144 140.568 108.106C135.646 108.126 131.905 104.955 131.905 100.387ZM148.443 98.4174V96.448L142.989 96.7828C140.371 96.9797 138.875 98.1416 138.875 99.9731C138.875 101.805 140.469 103.104 142.812 103.104C143.504 103.172 144.202 103.099 144.865 102.889C145.528 102.68 146.141 102.339 146.669 101.887C147.197 101.434 147.628 100.88 147.936 100.256C148.244 99.6331 148.423 98.954 148.462 98.2598L148.443 98.4174Z" fill="white"/>
<path d="M160.431 117.204V111.788C161.014 111.818 161.599 111.818 162.183 111.788C164.762 111.788 166.12 110.961 166.514 108.913C166.514 108.913 166.79 107.79 166.75 107.692L157.753 81.9134H165.49L170.983 102.079H171.101L176.594 81.9134H183.996L175.216 108.263C173.011 114.88 169.782 117.243 163.187 117.243C162.832 117.282 160.647 117.263 160.431 117.204Z" fill="white"/>
</svg>
